<?xml version="1.0" encoding="UTF-8" standalone="no"?>
<!DOCTYPE svg PUBLIC "-//W3C//DTD SVG 1.1//EN"
 "http://www.w3.org/Graphics/SVG/1.1/DTD/svg11.dtd">
<!-- Generated by graphviz version 2.40.1 (20161225.0304)
 -->
<!-- Title: dependency&#45;cruiser output Pages: 1 -->
<svg width="593pt" height="414pt"
 viewBox="0.00 0.00 593.46 414.00" xmlns="http://www.w3.org/2000/svg" xmlns:xlink="http://www.w3.org/1999/xlink">
<g id="graph0" class="graph" transform="scale(1 1) rotate(0) translate(4 410)">
<title>dependency&#45;cruiser output</title>
<polygon fill="#ffffff" stroke="transparent" points="-4,4 -4,-410 589.4561,-410 589.4561,4 -4,4"/>
<g id="clust1" class="cluster">
<title>cluster_src</title>
<path fill="#ffffff" stroke="#000000" stroke-width="2" d="M20,-8C20,-8 565.4561,-8 565.4561,-8 571.4561,-8 577.4561,-14 577.4561,-20 577.4561,-20 577.4561,-386 577.4561,-386 577.4561,-392 571.4561,-398 565.4561,-398 565.4561,-398 20,-398 20,-398 14,-398 8,-392 8,-386 8,-386 8,-20 8,-20 8,-14 14,-8 20,-8"/>
<text text-anchor="middle" x="292.728" y="-386.8" font-family="Helvetica,sans-Serif" font-weight="bold" font-size="9.00" fill="#000000">src</text>
</g>
<g id="clust2" class="cluster">
<title>cluster_src/Components</title>
<path fill="#ffffff" stroke="#000000" stroke-width="2" d="M200.2148,-56C200.2148,-56 557.4561,-56 557.4561,-56 563.4561,-56 569.4561,-62 569.4561,-68 569.4561,-68 569.4561,-361 569.4561,-361 569.4561,-367 563.4561,-373 557.4561,-373 557.4561,-373 200.2148,-373 200.2148,-373 194.2148,-373 188.2148,-367 188.2148,-361 188.2148,-361 188.2148,-68 188.2148,-68 188.2148,-62 194.2148,-56 200.2148,-56"/>
<text text-anchor="middle" x="378.8354" y="-361.8" font-family="Helvetica,sans-Serif" font-weight="bold" font-size="9.00" fill="#000000">Components</text>
</g>
<g id="clust5" class="cluster">
<title>cluster_src/Components/NavPages</title>
<path fill="#ffffff" stroke="#000000" stroke-width="2" d="M278.2148,-152C278.2148,-152 340.4126,-152 340.4126,-152 346.4126,-152 352.4126,-158 352.4126,-164 352.4126,-164 352.4126,-336 352.4126,-336 352.4126,-342 346.4126,-348 340.4126,-348 340.4126,-348 278.2148,-348 278.2148,-348 272.2148,-348 266.2148,-342 266.2148,-336 266.2148,-336 266.2148,-164 266.2148,-164 266.2148,-158 272.2148,-152 278.2148,-152"/>
<text text-anchor="middle" x="309.3137" y="-336.8" font-family="Helvetica,sans-Serif" font-weight="bold" font-size="9.00" fill="#000000">NavPages</text>
</g>
<g id="clust6" class="cluster">
<title>cluster_src/Components/Navbar</title>
<path fill="#ffffff" stroke="#000000" stroke-width="2" d="M208.2148,-64C208.2148,-64 339.5754,-64 339.5754,-64 345.5754,-64 351.5754,-70 351.5754,-76 351.5754,-76 351.5754,-132 351.5754,-132 351.5754,-138 345.5754,-144 339.5754,-144 339.5754,-144 208.2148,-144 208.2148,-144 202.2148,-144 196.2148,-138 196.2148,-132 196.2148,-132 196.2148,-76 196.2148,-76 196.2148,-70 202.2148,-64 208.2148,-64"/>
<text text-anchor="middle" x="273.8951" y="-132.8" font-family="Helvetica,sans-Serif" font-weight="bold" font-size="9.00" fill="#000000">Navbar</text>
</g>
<g id="clust3" class="cluster">
<title>cluster_src/Components/Light</title>
<path fill="#ffffff" stroke="#000000" stroke-width="2" d="M372.4126,-210C372.4126,-210 446.9414,-210 446.9414,-210 452.9414,-210 458.9414,-216 458.9414,-222 458.9414,-222 458.9414,-307 458.9414,-307 458.9414,-313 452.9414,-319 446.9414,-319 446.9414,-319 372.4126,-319 372.4126,-319 366.4126,-319 360.4126,-313 360.4126,-307 360.4126,-307 360.4126,-222 360.4126,-222 360.4126,-216 366.4126,-210 372.4126,-210"/>
<text text-anchor="middle" x="409.677" y="-307.8" font-family="Helvetica,sans-Serif" font-weight="bold" font-size="9.00" fill="#000000">Light</text>
</g>
<g id="clust4" class="cluster">
<title>cluster_src/Components/Movie</title>
<path fill="#ffffff" stroke="#000000" stroke-width="2" d="M375.4185,-64C375.4185,-64 549.4561,-64 549.4561,-64 555.4561,-64 561.4561,-70 561.4561,-76 561.4561,-76 561.4561,-190 561.4561,-190 561.4561,-196 555.4561,-202 549.4561,-202 549.4561,-202 375.4185,-202 375.4185,-202 369.4185,-202 363.4185,-196 363.4185,-190 363.4185,-190 363.4185,-76 363.4185,-76 363.4185,-70 369.4185,-64 375.4185,-64"/>
<text text-anchor="middle" x="462.4373" y="-190.8" font-family="Helvetica,sans-Serif" font-weight="bold" font-size="9.00" fill="#000000">Movie</text>
</g>
<!-- src/App.css -->
<g id="node1" class="node">
<title>src/App.css</title>
<g id="a_node1"><a xlink:href="src/App.css" xlink:title="App.css">
<path fill="#ffffcc" stroke="#000000" d="M252.5482,-47.5C252.5482,-47.5 209.8815,-47.5 209.8815,-47.5 207.0482,-47.5 204.2148,-44.6667 204.2148,-41.8333 204.2148,-41.8333 204.2148,-36.1667 204.2148,-36.1667 204.2148,-33.3333 207.0482,-30.5 209.8815,-30.5 209.8815,-30.5 252.5482,-30.5 252.5482,-30.5 255.3815,-30.5 258.2148,-33.3333 258.2148,-36.1667 258.2148,-36.1667 258.2148,-41.8333 258.2148,-41.8333 258.2148,-44.6667 255.3815,-47.5 252.5482,-47.5"/>
<text text-anchor="middle" x="231.2148" y="-36.3" font-family="Helvetica,sans-Serif" font-size="9.00" fill="#000000">App.css</text>
</a>
</g>
</g>
<!-- src/App.js -->
<g id="node2" class="node">
<title>src/App.js</title>
<g id="a_node2"><a xlink:href="src/App.js" xlink:title="App.js">
<path fill="#ffffcc" stroke="#000000" d="M160.62,-206.5C160.62,-206.5 117.9533,-206.5 117.9533,-206.5 115.12,-206.5 112.2866,-203.6667 112.2866,-200.8333 112.2866,-200.8333 112.2866,-195.1667 112.2866,-195.1667 112.2866,-192.3333 115.12,-189.5 117.9533,-189.5 117.9533,-189.5 160.62,-189.5 160.62,-189.5 163.4533,-189.5 166.2866,-192.3333 166.2866,-195.1667 166.2866,-195.1667 166.2866,-200.8333 166.2866,-200.8333 166.2866,-203.6667 163.4533,-206.5 160.62,-206.5"/>
<text text-anchor="middle" x="139.2866" y="-195.3" font-family="Helvetica,sans-Serif" font-size="9.00" fill="#000000">App.js</text>
</a>
</g>
</g>
<!-- src/App.js&#45;&gt;src/App.css -->
<g id="edge1" class="edge">
<title>src/App.js&#45;&gt;src/App.css</title>
<path fill="none" stroke="#000000" stroke-width="2" stroke-opacity="0.200000" d="M140.1872,-189.1821C143.021,-165.6141 153.7243,-100.2887 188.2148,-61 191.8713,-56.8349 196.5059,-53.354 201.3699,-50.4817"/>
<polygon fill="#000000" fill-opacity="0.200000" stroke="#000000" stroke-width="2" stroke-opacity="0.200000" points="202.4222,-52.3002 206.7025,-47.6002 200.4255,-48.6051 202.4222,-52.3002"/>
</g>
<!-- src/Components/Movie/MovieDetails.js -->
<g id="node3" class="node">
<title>src/Components/Movie/MovieDetails.js</title>
<g id="a_node3"><a xlink:href="src/Components/Movie/MovieDetails.js" xlink:title="MovieDetails.js">
<path fill="#ffffcc" stroke="#000000" d="M442.0289,-118.5C442.0289,-118.5 377.3251,-118.5 377.3251,-118.5 374.4917,-118.5 371.6584,-115.6667 371.6584,-112.8333 371.6584,-112.8333 371.6584,-107.1667 371.6584,-107.1667 371.6584,-104.3333 374.4917,-101.5 377.3251,-101.5 377.3251,-101.5 442.0289,-101.5 442.0289,-101.5 444.8623,-101.5 447.6956,-104.3333 447.6956,-107.1667 447.6956,-107.1667 447.6956,-112.8333 447.6956,-112.8333 447.6956,-115.6667 444.8623,-118.5 442.0289,-118.5"/>
<text text-anchor="middle" x="409.677" y="-107.3" font-family="Helvetica,sans-Serif" font-size="9.00" fill="#000000">MovieDetails.js</text>
</a>
</g>
</g>
<!-- src/App.js&#45;&gt;src/Components/Movie/MovieDetails.js -->
<g id="edge2" class="edge">
<title>src/App.js&#45;&gt;src/Components/Movie/MovieDetails.js</title>
<path fill="none" stroke="#000000" stroke-width="2" stroke-opacity="0.200000" d="M140.341,-189.4468C144.4908,-157.3357 160.8261,-44.7494 188.2148,-24 247.8423,21.173 303.6162,-4.2995 352.4126,-61 362.8212,-73.0946 349.4276,-84.4264 360.4126,-96 362.0385,-97.713 363.8574,-99.2213 365.8117,-100.5489"/>
<polygon fill="#000000" fill-opacity="0.200000" stroke="#000000" stroke-width="2" stroke-opacity="0.200000" points="365.0094,-102.5088 371.2617,-103.6574 367.0904,-98.8605 365.0094,-102.5088"/>
</g>
<!-- src/Components/Navbar/index.js -->
<g id="node4" class="node">
<title>src/Components/Navbar/index.js</title>
<g id="a_node4"><a xlink:href="src/Components/Navbar/index.js" xlink:title="index.js">
<path fill="#ffffcc" stroke="#000000" d="M252.5482,-118.5C252.5482,-118.5 209.8815,-118.5 209.8815,-118.5 207.0482,-118.5 204.2148,-115.6667 204.2148,-112.8333 204.2148,-112.8333 204.2148,-107.1667 204.2148,-107.1667 204.2148,-104.3333 207.0482,-101.5 209.8815,-101.5 209.8815,-101.5 252.5482,-101.5 252.5482,-101.5 255.3815,-101.5 258.2148,-104.3333 258.2148,-107.1667 258.2148,-107.1667 258.2148,-112.8333 258.2148,-112.8333 258.2148,-115.6667 255.3815,-118.5 252.5482,-118.5"/>
<text text-anchor="middle" x="231.2148" y="-107.3" font-family="Helvetica,sans-Serif" font-size="9.00" fill="#000000">index.js</text>
</a>
</g>
</g>
<!-- src/App.js&#45;&gt;src/Components/Navbar/index.js -->
<g id="edge3" class="edge">
<title>src/App.js&#45;&gt;src/Components/Navbar/index.js</title>
<path fill="none" stroke="#000000" stroke-width="2" stroke-opacity="0.200000" d="M142.5523,-189.3942C148.9124,-173.7926 164.4537,-140.8086 188.2148,-123 191.2455,-120.7286 194.6737,-118.8511 198.2396,-117.2999"/>
<polygon fill="#000000" fill-opacity="0.200000" stroke="#000000" stroke-width="2" stroke-opacity="0.200000" points="199.0693,-119.2309 203.919,-115.121 197.5649,-115.3095 199.0693,-119.2309"/>
</g>
<!-- src/Components/NavPages/ContactUs.js -->
<g id="node5" class="node">
<title>src/Components/NavPages/ContactUs.js</title>
<g id="a_node5"><a xlink:href="src/Components/NavPages/ContactUs.js" xlink:title="ContactUs.js">
<path fill="#ffffcc" stroke="#000000" d="M337.1632,-264.5C337.1632,-264.5 281.4643,-264.5 281.4643,-264.5 278.6309,-264.5 275.7976,-261.6667 275.7976,-258.8333 275.7976,-258.8333 275.7976,-253.1667 275.7976,-253.1667 275.7976,-250.3333 278.6309,-247.5 281.4643,-247.5 281.4643,-247.5 337.1632,-247.5 337.1632,-247.5 339.9965,-247.5 342.8298,-250.3333 342.8298,-253.1667 342.8298,-253.1667 342.8298,-258.8333 342.8298,-258.8333 342.8298,-261.6667 339.9965,-264.5 337.1632,-264.5"/>
<text text-anchor="middle" x="309.3137" y="-253.3" font-family="Helvetica,sans-Serif" font-size="9.00" fill="#000000">ContactUs.js</text>
</a>
</g>
</g>
<!-- src/App.js&#45;&gt;src/Components/NavPages/ContactUs.js -->
<g id="edge4" class="edge">
<title>src/App.js&#45;&gt;src/Components/NavPages/ContactUs.js</title>
<path fill="none" stroke="#000000" stroke-width="2" stroke-opacity="0.200000" d="M162.6729,-206.5368C168.4126,-208.6414 174.5382,-210.8954 180.2148,-213 183.7754,-214.32 184.6352,-214.7327 188.2148,-216 222.6617,-228.1952 231.5041,-230.5774 266.2148,-242 269.7459,-243.162 273.4417,-244.372 277.1211,-245.5726"/>
<polygon fill="#000000" fill-opacity="0.200000" stroke="#000000" stroke-width="2" stroke-opacity="0.200000" points="276.5082,-247.5815 282.8636,-247.4435 277.8093,-243.5881 276.5082,-247.5815"/>
</g>
<!-- src/Components/NavPages/Home.js -->
<g id="node6" class="node">
<title>src/Components/NavPages/Home.js</title>
<g id="a_node6"><a xlink:href="src/Components/NavPages/Home.js" xlink:title="Home.js">
<path fill="#ffffcc" stroke="#000000" d="M330.6471,-293.5C330.6471,-293.5 287.9804,-293.5 287.9804,-293.5 285.1471,-293.5 282.3137,-290.6667 282.3137,-287.8333 282.3137,-287.8333 282.3137,-282.1667 282.3137,-282.1667 282.3137,-279.3333 285.1471,-276.5 287.9804,-276.5 287.9804,-276.5 330.6471,-276.5 330.6471,-276.5 333.4804,-276.5 336.3137,-279.3333 336.3137,-282.1667 336.3137,-282.1667 336.3137,-287.8333 336.3137,-287.8333 336.3137,-290.6667 333.4804,-293.5 330.6471,-293.5"/>
<text text-anchor="middle" x="309.3137" y="-282.3" font-family="Helvetica,sans-Serif" font-size="9.00" fill="#000000">Home.js</text>
</a>
</g>
</g>
<!-- src/App.js&#45;&gt;src/Components/NavPages/Home.js -->
<g id="edge5" class="edge">
<title>src/App.js&#45;&gt;src/Components/NavPages/Home.js</title>
<path fill="none" stroke="#000000" stroke-width="2" stroke-opacity="0.200000" d="M166.5806,-204.5183C171.5324,-206.6205 176.3458,-209.3816 180.2148,-213 186.6089,-218.9798 182.199,-224.6398 188.2148,-231 214.9865,-259.3038 230.2401,-256.0453 266.2148,-271 269.4726,-272.3542 272.9115,-273.6636 276.3681,-274.9023"/>
<polygon fill="#000000" fill-opacity="0.200000" stroke="#000000" stroke-width="2" stroke-opacity="0.200000" points="275.8163,-276.9336 282.1732,-276.9156 277.1926,-272.9655 275.8163,-276.9336"/>
</g>
<!-- src/Components/NavPages/Login.js -->
<g id="node7" class="node">
<title>src/Components/NavPages/Login.js</title>
<g id="a_node7"><a xlink:href="src/Components/NavPages/Login.js" xlink:title="Login.js">
<path fill="#ffffcc" stroke="#000000" d="M330.6471,-322.5C330.6471,-322.5 287.9804,-322.5 287.9804,-322.5 285.1471,-322.5 282.3137,-319.6667 282.3137,-316.8333 282.3137,-316.8333 282.3137,-311.1667 282.3137,-311.1667 282.3137,-308.3333 285.1471,-305.5 287.9804,-305.5 287.9804,-305.5 330.6471,-305.5 330.6471,-305.5 333.4804,-305.5 336.3137,-308.3333 336.3137,-311.1667 336.3137,-311.1667 336.3137,-316.8333 336.3137,-316.8333 336.3137,-319.6667 333.4804,-322.5 330.6471,-322.5"/>
<text text-anchor="middle" x="309.3137" y="-311.3" font-family="Helvetica,sans-Serif" font-size="9.00" fill="#000000">Login.js</text>
</a>
</g>
</g>
<!-- src/App.js&#45;&gt;src/Components/NavPages/Login.js -->
<g id="edge6" class="edge">
<title>src/App.js&#45;&gt;src/Components/NavPages/Login.js</title>
<path fill="none" stroke="#000000" stroke-width="2" stroke-opacity="0.200000" d="M166.4074,-203.5163C171.614,-205.7 176.5711,-208.7474 180.2148,-213 192.0112,-226.7673 177.7851,-238.1706 188.2148,-253 211.4985,-286.1058 229.3952,-283.1942 266.2148,-300 269.4243,-301.4649 272.8319,-302.8462 276.2696,-304.1282"/>
<polygon fill="#000000" fill-opacity="0.200000" stroke="#000000" stroke-width="2" stroke-opacity="0.200000" points="275.6971,-306.1535 282.054,-306.1892 277.1069,-302.1971 275.6971,-306.1535"/>
</g>
<!-- src/Components/NavPages/MovieList.js -->
<g id="node8" class="node">
<title>src/Components/NavPages/MovieList.js</title>
<g id="a_node8"><a xlink:href="src/Components/NavPages/MovieList.js" xlink:title="MovieList.js">
<path fill="#ffffcc" stroke="#000000" d="M335.1598,-177.5C335.1598,-177.5 283.4677,-177.5 283.4677,-177.5 280.6344,-177.5 277.801,-174.6667 277.801,-171.8333 277.801,-171.8333 277.801,-166.1667 277.801,-166.1667 277.801,-163.3333 280.6344,-160.5 283.4677,-160.5 283.4677,-160.5 335.1598,-160.5 335.1598,-160.5 337.9931,-160.5 340.8264,-163.3333 340.8264,-166.1667 340.8264,-166.1667 340.8264,-171.8333 340.8264,-171.8333 340.8264,-174.6667 337.9931,-177.5 335.1598,-177.5"/>
<text text-anchor="middle" x="309.3137" y="-166.3" font-family="Helvetica,sans-Serif" font-size="9.00" fill="#000000">MovieList.js</text>
</a>
</g>
</g>
<!-- src/App.js&#45;&gt;src/Components/NavPages/MovieList.js -->
<g id="edge7" class="edge">
<title>src/App.js&#45;&gt;src/Components/NavPages/MovieList.js</title>
<path fill="none" stroke="#000000" stroke-width="2" stroke-opacity="0.200000" d="M166.6044,-193.3406C195.0302,-188.4923 239.7505,-180.8648 271.5482,-175.4413"/>
<polygon fill="#000000" fill-opacity="0.200000" stroke="#000000" stroke-width="2" stroke-opacity="0.200000" points="272.1653,-177.4665 277.7267,-174.3875 271.459,-173.3263 272.1653,-177.4665"/>
</g>
<!-- src/Components/NavPages/SignUp.js -->
<g id="node9" class="node">
<title>src/Components/NavPages/SignUp.js</title>
<g id="a_node9"><a xlink:href="src/Components/NavPages/SignUp.js" xlink:title="SignUp.js">
<path fill="#ffffcc" stroke="#000000" d="M330.6672,-206.5C330.6672,-206.5 287.9602,-206.5 287.9602,-206.5 285.1269,-206.5 282.2935,-203.6667 282.2935,-200.8333 282.2935,-200.8333 282.2935,-195.1667 282.2935,-195.1667 282.2935,-192.3333 285.1269,-189.5 287.9602,-189.5 287.9602,-189.5 330.6672,-189.5 330.6672,-189.5 333.5006,-189.5 336.3339,-192.3333 336.3339,-195.1667 336.3339,-195.1667 336.3339,-200.8333 336.3339,-200.8333 336.3339,-203.6667 333.5006,-206.5 330.6672,-206.5"/>
<text text-anchor="middle" x="309.3137" y="-195.3" font-family="Helvetica,sans-Serif" font-size="9.00" fill="#000000">SignUp.js</text>
</a>
</g>
</g>
<!-- src/App.js&#45;&gt;src/Components/NavPages/SignUp.js -->
<g id="edge8" class="edge">
<title>src/App.js&#45;&gt;src/Components/NavPages/SignUp.js</title>
<path fill="none" stroke="#000000" stroke-width="2" stroke-opacity="0.200000" d="M166.6044,-198C196.3503,-198 243.9393,-198 275.8916,-198"/>
<polygon fill="#000000" fill-opacity="0.200000" stroke="#000000" stroke-width="2" stroke-opacity="0.200000" points="276.0638,-200.1001 282.0637,-198 276.0637,-195.9001 276.0638,-200.1001"/>
</g>
<!-- src/Components/NavPages/WatchLater.js -->
<g id="node10" class="node">
<title>src/Components/NavPages/WatchLater.js</title>
<g id="a_node10"><a xlink:href="src/Components/NavPages/WatchLater.js" xlink:title="WatchLater.js">
<path fill="#ffffcc" stroke="#000000" d="M338.8451,-235.5C338.8451,-235.5 279.7824,-235.5 279.7824,-235.5 276.949,-235.5 274.1157,-232.6667 274.1157,-229.8333 274.1157,-229.8333 274.1157,-224.1667 274.1157,-224.1667 274.1157,-221.3333 276.949,-218.5 279.7824,-218.5 279.7824,-218.5 338.8451,-218.5 338.8451,-218.5 341.6784,-218.5 344.5118,-221.3333 344.5118,-224.1667 344.5118,-224.1667 344.5118,-229.8333 344.5118,-229.8333 344.5118,-232.6667 341.6784,-235.5 338.8451,-235.5"/>
<text text-anchor="middle" x="309.3137" y="-224.3" font-family="Helvetica,sans-Serif" font-size="9.00" fill="#000000">WatchLater.js</text>
</a>
</g>
</g>
<!-- src/App.js&#45;&gt;src/Components/NavPages/WatchLater.js -->
<g id="edge9" class="edge">
<title>src/App.js&#45;&gt;src/Components/NavPages/WatchLater.js</title>
<path fill="none" stroke="#000000" stroke-width="2" stroke-opacity="0.200000" d="M166.6044,-202.6594C193.9741,-207.3276 236.4501,-214.5723 267.9522,-219.9453"/>
<polygon fill="#000000" fill-opacity="0.200000" stroke="#000000" stroke-width="2" stroke-opacity="0.200000" points="267.8308,-222.0549 274.0985,-220.9937 268.537,-217.9147 267.8308,-222.0549"/>
</g>
<!-- src/Components/Movie/CastComp.js -->
<g id="node16" class="node">
<title>src/Components/Movie/CastComp.js</title>
<g id="a_node16"><a xlink:href="src/Components/Movie/CastComp.js" xlink:title="CastComp.js">
<path fill="#ffffcc" stroke="#000000" d="M538.0465,-176.5C538.0465,-176.5 482.351,-176.5 482.351,-176.5 479.5176,-176.5 476.6843,-173.6667 476.6843,-170.8333 476.6843,-170.8333 476.6843,-165.1667 476.6843,-165.1667 476.6843,-162.3333 479.5176,-159.5 482.351,-159.5 482.351,-159.5 538.0465,-159.5 538.0465,-159.5 540.8798,-159.5 543.7132,-162.3333 543.7132,-165.1667 543.7132,-165.1667 543.7132,-170.8333 543.7132,-170.8333 543.7132,-173.6667 540.8798,-176.5 538.0465,-176.5"/>
<text text-anchor="middle" x="510.1987" y="-165.3" font-family="Helvetica,sans-Serif" font-size="9.00" fill="#000000">CastComp.js</text>
</a>
</g>
</g>
<!-- src/Components/Movie/MovieDetails.js&#45;&gt;src/Components/Movie/CastComp.js -->
<g id="edge13" class="edge">
<title>src/Components/Movie/MovieDetails.js&#45;&gt;src/Components/Movie/CastComp.js</title>
<path fill="none" stroke="#000000" stroke-width="2" stroke-opacity="0.200000" d="M418.7159,-118.5482C429.4626,-128.3115 448.2983,-144.1974 466.9414,-154 469.1422,-155.1572 471.4563,-156.2415 473.8225,-157.2535"/>
<polygon fill="#000000" fill-opacity="0.200000" stroke="#000000" stroke-width="2" stroke-opacity="0.200000" points="473.0585,-159.2096 479.4095,-159.4835 474.6155,-155.3089 473.0585,-159.2096"/>
</g>
<!-- src/Components/Movie/OverviewComp.js -->
<g id="node18" class="node">
<title>src/Components/Movie/OverviewComp.js</title>
<g id="a_node18"><a xlink:href="src/Components/Movie/OverviewComp.js" xlink:title="OverviewComp.js">
<path fill="#ffffcc" stroke="#000000" d="M547.5481,-118.5C547.5481,-118.5 472.8494,-118.5 472.8494,-118.5 470.0161,-118.5 467.1827,-115.6667 467.1827,-112.8333 467.1827,-112.8333 467.1827,-107.1667 467.1827,-107.1667 467.1827,-104.3333 470.0161,-101.5 472.8494,-101.5 472.8494,-101.5 547.5481,-101.5 547.5481,-101.5 550.3814,-101.5 553.2147,-104.3333 553.2147,-107.1667 553.2147,-107.1667 553.2147,-112.8333 553.2147,-112.8333 553.2147,-115.6667 550.3814,-118.5 547.5481,-118.5"/>
<text text-anchor="middle" x="510.1987" y="-107.3" font-family="Helvetica,sans-Serif" font-size="9.00" fill="#000000">OverviewComp.js</text>
</a>
</g>
</g>
<!-- src/Components/Movie/MovieDetails.js&#45;&gt;src/Components/Movie/OverviewComp.js -->
<g id="edge14" class="edge">
<title>src/Components/Movie/MovieDetails.js&#45;&gt;src/Components/Movie/OverviewComp.js</title>
<path fill="none" stroke="#000000" stroke-width="2" stroke-opacity="0.200000" d="M447.9667,-110C452.1418,-110 456.434,-110 460.7185,-110"/>
<polygon fill="#000000" fill-opacity="0.200000" stroke="#000000" stroke-width="2" stroke-opacity="0.200000" points="460.976,-112.1001 466.976,-110 460.9759,-107.9001 460.976,-112.1001"/>
</g>
<!-- src/Components/Movie/PhotosComp.js -->
<g id="node19" class="node">
<title>src/Components/Movie/PhotosComp.js</title>
<g id="a_node19"><a xlink:href="src/Components/Movie/PhotosComp.js" xlink:title="PhotosComp.js">
<path fill="#ffffcc" stroke="#000000" d="M543.0589,-147.5C543.0589,-147.5 477.3385,-147.5 477.3385,-147.5 474.5052,-147.5 471.6719,-144.6667 471.6719,-141.8333 471.6719,-141.8333 471.6719,-136.1667 471.6719,-136.1667 471.6719,-133.3333 474.5052,-130.5 477.3385,-130.5 477.3385,-130.5 543.0589,-130.5 543.0589,-130.5 545.8923,-130.5 548.7256,-133.3333 548.7256,-136.1667 548.7256,-136.1667 548.7256,-141.8333 548.7256,-141.8333 548.7256,-144.6667 545.8923,-147.5 543.0589,-147.5"/>
<text text-anchor="middle" x="510.1987" y="-136.3" font-family="Helvetica,sans-Serif" font-size="9.00" fill="#000000">PhotosComp.js</text>
</a>
</g>
</g>
<!-- src/Components/Movie/MovieDetails.js&#45;&gt;src/Components/Movie/PhotosComp.js -->
<g id="edge15" class="edge">
<title>src/Components/Movie/MovieDetails.js&#45;&gt;src/Components/Movie/PhotosComp.js</title>
<path fill="none" stroke="#000000" stroke-width="2" stroke-opacity="0.200000" d="M439.2931,-118.5441C450.34,-121.7311 462.9974,-125.3827 474.5319,-128.7103"/>
<polygon fill="#000000" fill-opacity="0.200000" stroke="#000000" stroke-width="2" stroke-opacity="0.200000" points="474.0999,-130.7713 480.4469,-130.4168 475.2641,-126.7358 474.0999,-130.7713"/>
</g>
<!-- src/Components/Movie/ReviewComp.js -->
<g id="node20" class="node">
<title>src/Components/Movie/ReviewComp.js</title>
<g id="a_node20"><a xlink:href="src/Components/Movie/ReviewComp.js" xlink:title="ReviewComp.js">
<path fill="#ffffcc" stroke="#000000" d="M543.5501,-89.5C543.5501,-89.5 476.8473,-89.5 476.8473,-89.5 474.014,-89.5 471.1806,-86.6667 471.1806,-83.8333 471.1806,-83.8333 471.1806,-78.1667 471.1806,-78.1667 471.1806,-75.3333 474.014,-72.5 476.8473,-72.5 476.8473,-72.5 543.5501,-72.5 543.5501,-72.5 546.3835,-72.5 549.2168,-75.3333 549.2168,-78.1667 549.2168,-78.1667 549.2168,-83.8333 549.2168,-83.8333 549.2168,-86.6667 546.3835,-89.5 543.5501,-89.5"/>
<text text-anchor="middle" x="510.1987" y="-78.3" font-family="Helvetica,sans-Serif" font-size="9.00" fill="#000000">ReviewComp.js</text>
</a>
</g>
</g>
<!-- src/Components/Movie/MovieDetails.js&#45;&gt;src/Components/Movie/ReviewComp.js -->
<g id="edge16" class="edge">
<title>src/Components/Movie/MovieDetails.js&#45;&gt;src/Components/Movie/ReviewComp.js</title>
<path fill="none" stroke="#000000" stroke-width="2" stroke-opacity="0.200000" d="M439.9096,-101.4487C446.2022,-99.6576 452.7902,-97.774 458.9414,-96 464.2408,-94.4716 469.845,-92.8436 475.3261,-91.2448"/>
<polygon fill="#000000" fill-opacity="0.200000" stroke="#000000" stroke-width="2" stroke-opacity="0.200000" points="476.0346,-93.2257 481.2051,-89.5276 474.857,-89.1942 476.0346,-93.2257"/>
</g>
<!-- src/Components/Navbar/LeftMenu.js -->
<g id="node21" class="node">
<title>src/Components/Navbar/LeftMenu.js</title>
<g id="a_node21"><a xlink:href="src/Components/Navbar/LeftMenu.js" xlink:title="LeftMenu.js">
<path fill="#ffffcc" stroke="#000000" d="M334.6737,-118.5C334.6737,-118.5 283.9537,-118.5 283.9537,-118.5 281.1204,-118.5 278.287,-115.6667 278.287,-112.8333 278.287,-112.8333 278.287,-107.1667 278.287,-107.1667 278.287,-104.3333 281.1204,-101.5 283.9537,-101.5 283.9537,-101.5 334.6737,-101.5 334.6737,-101.5 337.5071,-101.5 340.3404,-104.3333 340.3404,-107.1667 340.3404,-107.1667 340.3404,-112.8333 340.3404,-112.8333 340.3404,-115.6667 337.5071,-118.5 334.6737,-118.5"/>
<text text-anchor="middle" x="309.3137" y="-107.3" font-family="Helvetica,sans-Serif" font-size="9.00" fill="#000000">LeftMenu.js</text>
</a>
</g>
</g>
<!-- src/Components/Navbar/index.js&#45;&gt;src/Components/Navbar/LeftMenu.js -->
<g id="edge20" class="edge">
<title>src/Components/Navbar/index.js&#45;&gt;src/Components/Navbar/LeftMenu.js</title>
<path fill="none" stroke="#000000" stroke-width="2" stroke-opacity="0.200000" d="M258.53,-110C262.8848,-110 267.4541,-110 271.9923,-110"/>
<polygon fill="#000000" fill-opacity="0.200000" stroke="#000000" stroke-width="2" stroke-opacity="0.200000" points="272.1384,-112.1001 278.1384,-110 272.1383,-107.9001 272.1384,-112.1001"/>
</g>
<!-- src/Components/Navbar/RightMenu.js -->
<g id="node22" class="node">
<title>src/Components/Navbar/RightMenu.js</title>
<g id="a_node22"><a xlink:href="src/Components/Navbar/RightMenu.js" xlink:title="RightMenu.js">
<path fill="#ffffcc" stroke="#000000" d="M337.6721,-89.5C337.6721,-89.5 280.9553,-89.5 280.9553,-89.5 278.122,-89.5 275.2886,-86.6667 275.2886,-83.8333 275.2886,-83.8333 275.2886,-78.1667 275.2886,-78.1667 275.2886,-75.3333 278.122,-72.5 280.9553,-72.5 280.9553,-72.5 337.6721,-72.5 337.6721,-72.5 340.5055,-72.5 343.3388,-75.3333 343.3388,-78.1667 343.3388,-78.1667 343.3388,-83.8333 343.3388,-83.8333 343.3388,-86.6667 340.5055,-89.5 337.6721,-89.5"/>
<text text-anchor="middle" x="309.3137" y="-78.3" font-family="Helvetica,sans-Serif" font-size="9.00" fill="#000000">RightMenu.js</text>
</a>
</g>
</g>
<!-- src/Components/Navbar/index.js&#45;&gt;src/Components/Navbar/RightMenu.js -->
<g id="edge21" class="edge">
<title>src/Components/Navbar/index.js&#45;&gt;src/Components/Navbar/RightMenu.js</title>
<path fill="none" stroke="#000000" stroke-width="2" stroke-opacity="0.200000" d="M252.2536,-101.4043C256.8402,-99.5808 261.6785,-97.6957 266.2148,-96 270.104,-94.5462 274.207,-93.0591 278.2733,-91.6131"/>
<polygon fill="#000000" fill-opacity="0.200000" stroke="#000000" stroke-width="2" stroke-opacity="0.200000" points="279.2147,-93.508 284.1754,-89.5328 277.8185,-89.5468 279.2147,-93.508"/>
</g>
<!-- src/Components/Light/MovieLightList.js -->
<g id="node13" class="node">
<title>src/Components/Light/MovieLightList.js</title>
<g id="a_node13"><a xlink:href="src/Components/Light/MovieLightList.js" xlink:title="MovieLightList.js">
<path fill="#ffffcc" stroke="#000000" d="M445.0405,-264.5C445.0405,-264.5 374.3135,-264.5 374.3135,-264.5 371.4802,-264.5 368.6469,-261.6667 368.6469,-258.8333 368.6469,-258.8333 368.6469,-253.1667 368.6469,-253.1667 368.6469,-250.3333 371.4802,-247.5 374.3135,-247.5 374.3135,-247.5 445.0405,-247.5 445.0405,-247.5 447.8738,-247.5 450.7071,-250.3333 450.7071,-253.1667 450.7071,-253.1667 450.7071,-258.8333 450.7071,-258.8333 450.7071,-261.6667 447.8738,-264.5 445.0405,-264.5"/>
<text text-anchor="middle" x="409.677" y="-253.3" font-family="Helvetica,sans-Serif" font-size="9.00" fill="#000000">MovieLightList.js</text>
</a>
</g>
</g>
<!-- src/Components/NavPages/MovieList.js&#45;&gt;src/Components/Light/MovieLightList.js -->
<g id="edge17" class="edge">
<title>src/Components/NavPages/MovieList.js&#45;&gt;src/Components/Light/MovieLightList.js</title>
<path fill="none" stroke="#000000" stroke-width="2" stroke-opacity="0.200000" d="M341.1216,-175.4484C345.4316,-177.5458 349.3997,-180.3231 352.4126,-184 368.9055,-204.1276 343.3426,-222.3595 360.4126,-242 361.3604,-243.0905 362.3864,-244.0991 363.4768,-245.0315"/>
<polygon fill="#000000" fill-opacity="0.200000" stroke="#000000" stroke-width="2" stroke-opacity="0.200000" points="362.5114,-246.9198 368.6278,-248.6518 364.9265,-243.4836 362.5114,-246.9198"/>
</g>
<!-- src/Components/Movie/index.js -->
<g id="node14" class="node">
<title>src/Components/Movie/index.js</title>
<g id="a_node14"><a xlink:href="src/Components/Movie/index.js" xlink:title="index.js">
<path fill="#ffffcc" stroke="#000000" d="M431.0103,-176.5C431.0103,-176.5 388.3437,-176.5 388.3437,-176.5 385.5103,-176.5 382.677,-173.6667 382.677,-170.8333 382.677,-170.8333 382.677,-165.1667 382.677,-165.1667 382.677,-162.3333 385.5103,-159.5 388.3437,-159.5 388.3437,-159.5 431.0103,-159.5 431.0103,-159.5 433.8437,-159.5 436.677,-162.3333 436.677,-165.1667 436.677,-165.1667 436.677,-170.8333 436.677,-170.8333 436.677,-173.6667 433.8437,-176.5 431.0103,-176.5"/>
<text text-anchor="middle" x="409.677" y="-165.3" font-family="Helvetica,sans-Serif" font-size="9.00" fill="#000000">index.js</text>
</a>
</g>
</g>
<!-- src/Components/NavPages/WatchLater.js&#45;&gt;src/Components/Movie/index.js -->
<g id="edge18" class="edge">
<title>src/Components/NavPages/WatchLater.js&#45;&gt;src/Components/Movie/index.js</title>
<path fill="none" stroke="#000000" stroke-width="2" stroke-opacity="0.200000" d="M340.4672,-218.341C344.5796,-216.7786 348.6643,-214.9996 352.4126,-213 353.5753,-212.3798 377.5194,-193.475 394.0735,-180.3687"/>
<polygon fill="#000000" fill-opacity="0.200000" stroke="#000000" stroke-width="2" stroke-opacity="0.200000" points="395.5407,-181.8855 398.9403,-176.514 392.933,-178.5931 395.5407,-181.8855"/>
</g>
<!-- src/App.test.js -->
<g id="node11" class="node">
<title>src/App.test.js</title>
<g id="a_node11"><a xlink:href="src/App.test.js" xlink:title="App.test.js">
<path fill="#ffffcc" stroke="#000000" d="M74.033,-206.5C74.033,-206.5 27.3254,-206.5 27.3254,-206.5 24.492,-206.5 21.6587,-203.6667 21.6587,-200.8333 21.6587,-200.8333 21.6587,-195.1667 21.6587,-195.1667 21.6587,-192.3333 24.492,-189.5 27.3254,-189.5 27.3254,-189.5 74.033,-189.5 74.033,-189.5 76.8664,-189.5 79.6997,-192.3333 79.6997,-195.1667 79.6997,-195.1667 79.6997,-200.8333 79.6997,-200.8333 79.6997,-203.6667 76.8664,-206.5 74.033,-206.5"/>
<text text-anchor="middle" x="50.6792" y="-195.3" font-family="Helvetica,sans-Serif" font-size="9.00" fill="#000000">App.test.js</text>
</a>
</g>
</g>
<!-- src/App.test.js&#45;&gt;src/App.js -->
<g id="edge10" class="edge">
<title>src/App.test.js&#45;&gt;src/App.js</title>
<path fill="none" stroke="#000000" stroke-width="2" stroke-opacity="0.200000" d="M79.6926,-198C88.0591,-198 97.2548,-198 105.8659,-198"/>
<polygon fill="#000000" fill-opacity="0.200000" stroke="#000000" stroke-width="2" stroke-opacity="0.200000" points="106.0125,-200.1001 112.0125,-198 106.0124,-195.9001 106.0125,-200.1001"/>
</g>
<!-- src/Components/Light/Gallery.js -->
<g id="node12" class="node">
<title>src/Components/Light/Gallery.js</title>
<g id="a_node12"><a xlink:href="src/Components/Light/Gallery.js" xlink:title="Gallery.js">
<path fill="#ffffcc" stroke="#000000" d="M431.0103,-293.5C431.0103,-293.5 388.3437,-293.5 388.3437,-293.5 385.5103,-293.5 382.677,-290.6667 382.677,-287.8333 382.677,-287.8333 382.677,-282.1667 382.677,-282.1667 382.677,-279.3333 385.5103,-276.5 388.3437,-276.5 388.3437,-276.5 431.0103,-276.5 431.0103,-276.5 433.8437,-276.5 436.677,-279.3333 436.677,-282.1667 436.677,-282.1667 436.677,-287.8333 436.677,-287.8333 436.677,-290.6667 433.8437,-293.5 431.0103,-293.5"/>
<text text-anchor="middle" x="409.677" y="-282.3" font-family="Helvetica,sans-Serif" font-size="9.00" fill="#000000">Gallery.js</text>
</a>
</g>
</g>
<!-- src/Components/Light/MovieLightList.js&#45;&gt;src/Components/Movie/index.js -->
<g id="edge11" class="edge">
<title>src/Components/Light/MovieLightList.js&#45;&gt;src/Components/Movie/index.js</title>
<path fill="none" stroke="#000000" stroke-width="2" stroke-opacity="0.200000" d="M368.5841,-249.7501C362.8928,-246.7226 358.3304,-242.3341 356.4126,-236 352.6422,-223.5474 351.5955,-216.5678 360.4126,-207 369.7293,-196.8901 381.8127,-187.2822 391.6806,-180.1324"/>
<polygon fill="#000000" fill-opacity="0.200000" stroke="#000000" stroke-width="2" stroke-opacity="0.200000" points="392.938,-181.8151 396.6126,-176.6279 390.5052,-178.3914 392.938,-181.8151"/>
</g>
<!-- src/Components/Light/SearchTitle.js -->
<g id="node15" class="node">
<title>src/Components/Light/SearchTitle.js</title>
<g id="a_node15"><a xlink:href="src/Components/Light/SearchTitle.js" xlink:title="SearchTitle.js">
<path fill="#ffffcc" stroke="#000000" d="M439.1996,-235.5C439.1996,-235.5 380.1544,-235.5 380.1544,-235.5 377.3211,-235.5 374.4878,-232.6667 374.4878,-229.8333 374.4878,-229.8333 374.4878,-224.1667 374.4878,-224.1667 374.4878,-221.3333 377.3211,-218.5 380.1544,-218.5 380.1544,-218.5 439.1996,-218.5 439.1996,-218.5 442.0329,-218.5 444.8662,-221.3333 444.8662,-224.1667 444.8662,-224.1667 444.8662,-229.8333 444.8662,-229.8333 444.8662,-232.6667 442.0329,-235.5 439.1996,-235.5"/>
<text text-anchor="middle" x="409.677" y="-224.3" font-family="Helvetica,sans-Serif" font-size="9.00" fill="#000000">SearchTitle.js</text>
</a>
</g>
</g>
<!-- src/Components/Movie/CastComp.js&#45;&gt;src/Components/Light/Gallery.js -->
<g id="edge12" class="edge">
<title>src/Components/Movie/CastComp.js&#45;&gt;src/Components/Light/Gallery.js</title>
<path fill="none" stroke="#000000" stroke-width="2" stroke-opacity="0.200000" d="M508.3947,-176.6685C503.8121,-196.4835 489.8292,-245.3532 458.9414,-271 454.2213,-274.9192 448.4667,-277.7428 442.5782,-279.7766"/>
<polygon fill="#000000" fill-opacity="0.200000" stroke="#000000" stroke-width="2" stroke-opacity="0.200000" points="441.8149,-277.8134 436.6783,-281.5585 443.0293,-281.834 441.8149,-277.8134"/>
</g>
<!-- src/Components/Movie/Details.js -->
<g id="node17" class="node">
<title>src/Components/Movie/Details.js</title>
<g id="a_node17"><a xlink:href="src/Components/Movie/Details.js" xlink:title="Details.js">
<path fill="#ccffcc" stroke="#000000" d="M431.0103,-89.5C431.0103,-89.5 388.3437,-89.5 388.3437,-89.5 385.5103,-89.5 382.677,-86.6667 382.677,-83.8333 382.677,-83.8333 382.677,-78.1667 382.677,-78.1667 382.677,-75.3333 385.5103,-72.5 388.3437,-72.5 388.3437,-72.5 431.0103,-72.5 431.0103,-72.5 433.8437,-72.5 436.677,-75.3333 436.677,-78.1667 436.677,-78.1667 436.677,-83.8333 436.677,-83.8333 436.677,-86.6667 433.8437,-89.5 431.0103,-89.5"/>
<text text-anchor="middle" x="409.677" y="-78.3" font-family="Helvetica,sans-Serif" font-size="9.00" fill="#000000">Details.js</text>
</a>
</g>
</g>
<!-- src/Components/Navbar/RightMenu.js&#45;&gt;src/Components/Light/SearchTitle.js -->
<g id="edge19" class="edge">
<title>src/Components/Navbar/RightMenu.js&#45;&gt;src/Components/Light/SearchTitle.js</title>
<path fill="none" stroke="#000000" stroke-width="2" stroke-opacity="0.200000" d="M343.4376,-88.4023C346.8871,-90.3702 350.0009,-92.8574 352.4126,-96 367.1991,-115.2675 346.4588,-185.1212 360.4126,-205 363.391,-209.243 367.384,-212.6797 371.8138,-215.4603"/>
<polygon fill="#000000" fill-opacity="0.200000" stroke="#000000" stroke-width="2" stroke-opacity="0.200000" points="370.9138,-217.3624 377.1801,-218.4322 372.9487,-213.6882 370.9138,-217.3624"/>
</g>
<!-- src/index.css -->
<g id="node23" class="node">
<title>src/index.css</title>
<g id="a_node23"><a xlink:href="src/index.css" xlink:title="index.css">
<path fill="#ffffcc" stroke="#000000" d="M160.62,-264.5C160.62,-264.5 117.9533,-264.5 117.9533,-264.5 115.12,-264.5 112.2866,-261.6667 112.2866,-258.8333 112.2866,-258.8333 112.2866,-253.1667 112.2866,-253.1667 112.2866,-250.3333 115.12,-247.5 117.9533,-247.5 117.9533,-247.5 160.62,-247.5 160.62,-247.5 163.4533,-247.5 166.2866,-250.3333 166.2866,-253.1667 166.2866,-253.1667 166.2866,-258.8333 166.2866,-258.8333 166.2866,-261.6667 163.4533,-264.5 160.62,-264.5"/>
<text text-anchor="middle" x="139.2866" y="-253.3" font-family="Helvetica,sans-Serif" font-size="9.00" fill="#000000">index.css</text>
</a>
</g>
</g>
<!-- src/index.js -->
<g id="node24" class="node">
<title>src/index.js</title>
<g id="a_node24"><a xlink:href="src/index.js" xlink:title="index.js">
<path fill="#ffffcc" stroke="#000000" d="M72.0125,-235.5C72.0125,-235.5 29.3459,-235.5 29.3459,-235.5 26.5125,-235.5 23.6792,-232.6667 23.6792,-229.8333 23.6792,-229.8333 23.6792,-224.1667 23.6792,-224.1667 23.6792,-221.3333 26.5125,-218.5 29.3459,-218.5 29.3459,-218.5 72.0125,-218.5 72.0125,-218.5 74.8459,-218.5 77.6792,-221.3333 77.6792,-224.1667 77.6792,-224.1667 77.6792,-229.8333 77.6792,-229.8333 77.6792,-232.6667 74.8459,-235.5 72.0125,-235.5"/>
<text text-anchor="middle" x="50.6792" y="-224.3" font-family="Helvetica,sans-Serif" font-size="9.00" fill="#000000">index.js</text>
</a>
</g>
</g>
<!-- src/index.js&#45;&gt;src/App.js -->
<g id="edge22" class="edge">
<title>src/index.js&#45;&gt;src/App.js</title>
<path fill="none" stroke="#000000" stroke-width="2" stroke-opacity="0.200000" d="M76.7851,-218.4559C86.344,-215.3274 97.2708,-211.7512 107.2865,-208.4732"/>
<polygon fill="#000000" fill-opacity="0.200000" stroke="#000000" stroke-width="2" stroke-opacity="0.200000" points="108.012,-210.4454 113.0611,-206.5832 106.7055,-206.4538 108.012,-210.4454"/>
</g>
<!-- src/index.js&#45;&gt;src/index.css -->
<g id="edge23" class="edge">
<title>src/index.js&#45;&gt;src/index.css</title>
<path fill="none" stroke="#000000" stroke-width="2" stroke-opacity="0.200000" d="M76.7851,-235.5441C86.344,-238.6726 97.2708,-242.2488 107.2865,-245.5268"/>
<polygon fill="#000000" fill-opacity="0.200000" stroke="#000000" stroke-width="2" stroke-opacity="0.200000" points="106.7055,-247.5462 113.0611,-247.4168 108.012,-243.5546 106.7055,-247.5462"/>
</g>
<!-- src/serviceWorker.js -->
<g id="node25" class="node">
<title>src/serviceWorker.js</title>
<g id="a_node25"><a xlink:href="src/serviceWorker.js" xlink:title="serviceWorker.js">
<path fill="#ffffcc" stroke="#000000" d="M174.4765,-235.5C174.4765,-235.5 104.0967,-235.5 104.0967,-235.5 101.2634,-235.5 98.4301,-232.6667 98.4301,-229.8333 98.4301,-229.8333 98.4301,-224.1667 98.4301,-224.1667 98.4301,-221.3333 101.2634,-218.5 104.0967,-218.5 104.0967,-218.5 174.4765,-218.5 174.4765,-218.5 177.3099,-218.5 180.1432,-221.3333 180.1432,-224.1667 180.1432,-224.1667 180.1432,-229.8333 180.1432,-229.8333 180.1432,-232.6667 177.3099,-235.5 174.4765,-235.5"/>
<text text-anchor="middle" x="139.2866" y="-224.3" font-family="Helvetica,sans-Serif" font-size="9.00" fill="#000000">serviceWorker.js</text>
</a>
</g>
</g>
<!-- src/index.js&#45;&gt;src/serviceWorker.js -->
<g id="edge24" class="edge">
<title>src/index.js&#45;&gt;src/serviceWorker.js</title>
<path fill="none" stroke="#000000" stroke-width="2" stroke-opacity="0.200000" d="M77.7458,-227C82.3263,-227 87.198,-227 92.117,-227"/>
<polygon fill="#000000" fill-opacity="0.200000" stroke="#000000" stroke-width="2" stroke-opacity="0.200000" points="92.3547,-229.1001 98.3547,-227 92.3547,-224.9001 92.3547,-229.1001"/>
</g>
<!-- src/setupProxy.js -->
<g id="node26" class="node">
<title>src/setupProxy.js</title>
<g id="a_node26"><a xlink:href="src/setupProxy.js" xlink:title="setupProxy.js">
<path fill="#ccffcc" stroke="#000000" d="M79.8719,-148.5C79.8719,-148.5 21.4865,-148.5 21.4865,-148.5 18.6532,-148.5 15.8199,-145.6667 15.8199,-142.8333 15.8199,-142.8333 15.8199,-137.1667 15.8199,-137.1667 15.8199,-134.3333 18.6532,-131.5 21.4865,-131.5 21.4865,-131.5 79.8719,-131.5 79.8719,-131.5 82.7052,-131.5 85.5385,-134.3333 85.5385,-137.1667 85.5385,-137.1667 85.5385,-142.8333 85.5385,-142.8333 85.5385,-145.6667 82.7052,-148.5 79.8719,-148.5"/>
<text text-anchor="middle" x="50.6792" y="-137.3" font-family="Helvetica,sans-Serif" font-size="9.00" fill="#000000">setupProxy.js</text>
</a>
</g>
</g>
<!-- src/setupTests.js -->
<g id="node27" class="node">
<title>src/setupTests.js</title>
<g id="a_node27"><a xlink:href="src/setupTests.js" xlink:title="setupTests.js">
<path fill="#ccffcc" stroke="#000000" d="M79.035,-62.5C79.035,-62.5 22.3234,-62.5 22.3234,-62.5 19.4901,-62.5 16.6567,-59.6667 16.6567,-56.8333 16.6567,-56.8333 16.6567,-51.1667 16.6567,-51.1667 16.6567,-48.3333 19.4901,-45.5 22.3234,-45.5 22.3234,-45.5 79.035,-45.5 79.035,-45.5 81.8683,-45.5 84.7017,-48.3333 84.7017,-51.1667 84.7017,-51.1667 84.7017,-56.8333 84.7017,-56.8333 84.7017,-59.6667 81.8683,-62.5 79.035,-62.5"/>
<text text-anchor="middle" x="50.6792" y="-51.3" font-family="Helvetica,sans-Serif" font-size="9.00" fill="#000000">setupTests.js</text>
</a>
</g>
</g>
</g>
</svg>
