<?xml version="1.0" encoding="UTF-8" standalone="no"?>
<!DOCTYPE svg PUBLIC "-//W3C//DTD SVG 1.1//EN"
 "http://www.w3.org/Graphics/SVG/1.1/DTD/svg11.dtd">
<!-- Generated by graphviz version 2.40.1 (20161225.0304)
 -->
<!-- Title: dependency&#45;cruiser output Pages: 1 -->
<svg width="531pt" height="282pt"
 viewBox="0.00 0.00 530.99 282.00" xmlns="http://www.w3.org/2000/svg" xmlns:xlink="http://www.w3.org/1999/xlink">
<g id="graph0" class="graph" transform="scale(1 1) rotate(0) translate(4 278)">
<title>dependency&#45;cruiser output</title>
<polygon fill="#ffffff" stroke="transparent" points="-4,4 -4,-278 526.9858,-278 526.9858,4 -4,4"/>
<g id="clust1" class="cluster">
<title>cluster_src</title>
<path fill="#ffffff" stroke="#000000" stroke-width="2" d="M20,-8C20,-8 502.9858,-8 502.9858,-8 508.9858,-8 514.9858,-14 514.9858,-20 514.9858,-20 514.9858,-254 514.9858,-254 514.9858,-260 508.9858,-266 502.9858,-266 502.9858,-266 20,-266 20,-266 14,-266 8,-260 8,-254 8,-254 8,-20 8,-20 8,-14 14,-8 20,-8"/>
<text text-anchor="middle" x="261.4929" y="-254.8" font-family="Helvetica,sans-Serif" font-weight="bold" font-size="9.00" fill="#000000">src</text>
</g>
<g id="clust2" class="cluster">
<title>cluster_src/components</title>
<path fill="#ffffff" stroke="#000000" stroke-width="2" d="M184.8564,-16C184.8564,-16 494.9858,-16 494.9858,-16 500.9858,-16 506.9858,-22 506.9858,-28 506.9858,-28 506.9858,-229 506.9858,-229 506.9858,-235 500.9858,-241 494.9858,-241 494.9858,-241 184.8564,-241 184.8564,-241 178.8564,-241 172.8564,-235 172.8564,-229 172.8564,-229 172.8564,-28 172.8564,-28 172.8564,-22 178.8564,-16 184.8564,-16"/>
<text text-anchor="middle" x="339.9211" y="-229.8" font-family="Helvetica,sans-Serif" font-weight="bold" font-size="9.00" fill="#000000">components</text>
</g>
<!-- src/App.js -->
<g id="node1" class="node">
<title>src/App.js</title>
<g id="a_node1"><a xlink:href="src/App.js" xlink:title="App.js">
<path fill="#ffffcc" stroke="#000000" d="M159.1898,-128.5C159.1898,-128.5 116.5231,-128.5 116.5231,-128.5 113.6898,-128.5 110.8564,-125.6667 110.8564,-122.8333 110.8564,-122.8333 110.8564,-117.1667 110.8564,-117.1667 110.8564,-114.3333 113.6898,-111.5 116.5231,-111.5 116.5231,-111.5 159.1898,-111.5 159.1898,-111.5 162.0231,-111.5 164.8564,-114.3333 164.8564,-117.1667 164.8564,-117.1667 164.8564,-122.8333 164.8564,-122.8333 164.8564,-125.6667 162.0231,-128.5 159.1898,-128.5"/>
<text text-anchor="middle" x="137.8564" y="-117.3" font-family="Helvetica,sans-Serif" font-size="9.00" fill="#000000">App.js</text>
</a>
</g>
</g>
<!-- src/components/contact&#45;us&#45;page.js -->
<g id="node2" class="node">
<title>src/components/contact&#45;us&#45;page.js</title>
<g id="a_node2"><a xlink:href="src/components/contact-us-page.js" xlink:title="contact&#45;us&#45;page.js">
<path fill="#ffffcc" stroke="#000000" d="M267.9983,-215.5C267.9983,-215.5 190.2531,-215.5 190.2531,-215.5 187.4198,-215.5 184.5865,-212.6667 184.5865,-209.8333 184.5865,-209.8333 184.5865,-204.1667 184.5865,-204.1667 184.5865,-201.3333 187.4198,-198.5 190.2531,-198.5 190.2531,-198.5 267.9983,-198.5 267.9983,-198.5 270.8317,-198.5 273.665,-201.3333 273.665,-204.1667 273.665,-204.1667 273.665,-209.8333 273.665,-209.8333 273.665,-212.6667 270.8317,-215.5 267.9983,-215.5"/>
<text text-anchor="middle" x="229.1257" y="-204.3" font-family="Helvetica,sans-Serif" font-size="9.00" fill="#000000">contact&#45;us&#45;page.js</text>
</a>
</g>
</g>
<!-- src/App.js&#45;&gt;src/components/contact&#45;us&#45;page.js -->
<g id="edge1" class="edge">
<title>src/App.js&#45;&gt;src/components/contact&#45;us&#45;page.js</title>
<path fill="none" stroke="#000000" stroke-width="2" stroke-opacity="0.200000" d="M139.5082,-128.6905C142.903,-144.0899 152.1555,-176.1299 172.8564,-193 174.6805,-194.4865 176.6407,-195.8183 178.6968,-197.0112"/>
<polygon fill="#000000" fill-opacity="0.200000" stroke="#000000" stroke-width="2" stroke-opacity="0.200000" points="178.0331,-199.0285 184.336,-199.8555 179.9245,-195.2784 178.0331,-199.0285"/>
</g>
<!-- src/components/Header.js -->
<g id="node3" class="node">
<title>src/components/Header.js</title>
<g id="a_node3"><a xlink:href="src/components/Header.js" xlink:title="Header.js">
<path fill="#ffffcc" stroke="#000000" d="M250.485,-186.5C250.485,-186.5 207.7665,-186.5 207.7665,-186.5 204.9332,-186.5 202.0998,-183.6667 202.0998,-180.8333 202.0998,-180.8333 202.0998,-175.1667 202.0998,-175.1667 202.0998,-172.3333 204.9332,-169.5 207.7665,-169.5 207.7665,-169.5 250.485,-169.5 250.485,-169.5 253.3183,-169.5 256.1516,-172.3333 256.1516,-175.1667 256.1516,-175.1667 256.1516,-180.8333 256.1516,-180.8333 256.1516,-183.6667 253.3183,-186.5 250.485,-186.5"/>
<text text-anchor="middle" x="229.1257" y="-175.3" font-family="Helvetica,sans-Serif" font-size="9.00" fill="#000000">Header.js</text>
</a>
</g>
</g>
<!-- src/App.js&#45;&gt;src/components/Header.js -->
<g id="edge2" class="edge">
<title>src/App.js&#45;&gt;src/components/Header.js</title>
<path fill="none" stroke="#000000" stroke-width="2" stroke-opacity="0.200000" d="M142.3266,-128.5225C148.0441,-138.5681 158.8984,-155.0269 172.8564,-164 179.7393,-168.4247 187.9239,-171.4511 195.8899,-173.5209"/>
<polygon fill="#000000" fill-opacity="0.200000" stroke="#000000" stroke-width="2" stroke-opacity="0.200000" points="195.5936,-175.6081 201.9136,-174.9246 196.5468,-171.5177 195.5936,-175.6081"/>
</g>
<!-- src/components/home&#45;page.js -->
<g id="node4" class="node">
<title>src/components/home&#45;page.js</title>
<g id="a_node4"><a xlink:href="src/components/home-page.js" xlink:title="home&#45;page.js">
<path fill="#ffffcc" stroke="#000000" d="M258.4923,-157.5C258.4923,-157.5 199.7591,-157.5 199.7591,-157.5 196.9258,-157.5 194.0924,-154.6667 194.0924,-151.8333 194.0924,-151.8333 194.0924,-146.1667 194.0924,-146.1667 194.0924,-143.3333 196.9258,-140.5 199.7591,-140.5 199.7591,-140.5 258.4923,-140.5 258.4923,-140.5 261.3257,-140.5 264.159,-143.3333 264.159,-146.1667 264.159,-146.1667 264.159,-151.8333 264.159,-151.8333 264.159,-154.6667 261.3257,-157.5 258.4923,-157.5"/>
<text text-anchor="middle" x="229.1257" y="-146.3" font-family="Helvetica,sans-Serif" font-size="9.00" fill="#000000">home&#45;page.js</text>
</a>
</g>
</g>
<!-- src/App.js&#45;&gt;src/components/home&#45;page.js -->
<g id="edge3" class="edge">
<title>src/App.js&#45;&gt;src/components/home&#45;page.js</title>
<path fill="none" stroke="#000000" stroke-width="2" stroke-opacity="0.200000" d="M156.1682,-128.5056C161.4833,-130.794 167.3422,-133.1459 172.8564,-135 177.7258,-136.6373 182.8897,-138.1782 188.0374,-139.596"/>
<polygon fill="#000000" fill-opacity="0.200000" stroke="#000000" stroke-width="2" stroke-opacity="0.200000" points="187.7155,-141.6835 194.0542,-141.2022 188.7988,-137.6256 187.7155,-141.6835"/>
</g>
<!-- src/components/Login&#45;page.js -->
<g id="node5" class="node">
<title>src/components/Login&#45;page.js</title>
<g id="a_node5"><a xlink:href="src/components/Login-page.js" xlink:title="Login&#45;page.js">
<path fill="#ffffcc" stroke="#000000" d="M258.4986,-128.5C258.4986,-128.5 199.7528,-128.5 199.7528,-128.5 196.9195,-128.5 194.0862,-125.6667 194.0862,-122.8333 194.0862,-122.8333 194.0862,-117.1667 194.0862,-117.1667 194.0862,-114.3333 196.9195,-111.5 199.7528,-111.5 199.7528,-111.5 258.4986,-111.5 258.4986,-111.5 261.332,-111.5 264.1653,-114.3333 264.1653,-117.1667 264.1653,-117.1667 264.1653,-122.8333 264.1653,-122.8333 264.1653,-125.6667 261.332,-128.5 258.4986,-128.5"/>
<text text-anchor="middle" x="229.1257" y="-117.3" font-family="Helvetica,sans-Serif" font-size="9.00" fill="#000000">Login&#45;page.js</text>
</a>
</g>
</g>
<!-- src/App.js&#45;&gt;src/components/Login&#45;page.js -->
<g id="edge4" class="edge">
<title>src/App.js&#45;&gt;src/components/Login&#45;page.js</title>
<path fill="none" stroke="#000000" stroke-width="2" stroke-opacity="0.200000" d="M165.2402,-120C172.296,-120 180.0486,-120 187.6463,-120"/>
<polygon fill="#000000" fill-opacity="0.200000" stroke="#000000" stroke-width="2" stroke-opacity="0.200000" points="187.9733,-122.1001 193.9733,-120 187.9732,-117.9001 187.9733,-122.1001"/>
</g>
<!-- src/components/movie&#45;detail&#45;page.js -->
<g id="node6" class="node">
<title>src/components/movie&#45;detail&#45;page.js</title>
<g id="a_node6"><a xlink:href="src/components/movie-detail-page.js" xlink:title="movie&#45;detail&#45;page.js">
<path fill="#ffffcc" stroke="#000000" d="M271.4987,-99.5C271.4987,-99.5 186.7527,-99.5 186.7527,-99.5 183.9194,-99.5 181.0861,-96.6667 181.0861,-93.8333 181.0861,-93.8333 181.0861,-88.1667 181.0861,-88.1667 181.0861,-85.3333 183.9194,-82.5 186.7527,-82.5 186.7527,-82.5 271.4987,-82.5 271.4987,-82.5 274.3321,-82.5 277.1654,-85.3333 277.1654,-88.1667 277.1654,-88.1667 277.1654,-93.8333 277.1654,-93.8333 277.1654,-96.6667 274.3321,-99.5 271.4987,-99.5"/>
<text text-anchor="middle" x="229.1257" y="-88.3" font-family="Helvetica,sans-Serif" font-size="9.00" fill="#000000">movie&#45;detail&#45;page.js</text>
</a>
</g>
</g>
<!-- src/App.js&#45;&gt;src/components/movie&#45;detail&#45;page.js -->
<g id="edge5" class="edge">
<title>src/App.js&#45;&gt;src/components/movie&#45;detail&#45;page.js</title>
<path fill="none" stroke="#000000" stroke-width="2" stroke-opacity="0.200000" d="M158.0621,-111.4396C162.87,-109.5361 168.0117,-107.6082 172.8564,-106 177.822,-104.3517 183.0794,-102.7568 188.3077,-101.2611"/>
<polygon fill="#000000" fill-opacity="0.200000" stroke="#000000" stroke-width="2" stroke-opacity="0.200000" points="189.2001,-103.1922 194.4127,-99.5536 188.0688,-99.1474 189.2001,-103.1922"/>
</g>
<!-- src/components/movie&#45;list&#45;page.js -->
<g id="node7" class="node">
<title>src/components/movie&#45;list&#45;page.js</title>
<g id="a_node7"><a xlink:href="src/components/movie-list-page.js" xlink:title="movie&#45;list&#45;page.js">
<path fill="#ffffcc" stroke="#000000" d="M266.4815,-70.5C266.4815,-70.5 191.7699,-70.5 191.7699,-70.5 188.9366,-70.5 186.1033,-67.6667 186.1033,-64.8333 186.1033,-64.8333 186.1033,-59.1667 186.1033,-59.1667 186.1033,-56.3333 188.9366,-53.5 191.7699,-53.5 191.7699,-53.5 266.4815,-53.5 266.4815,-53.5 269.3149,-53.5 272.1482,-56.3333 272.1482,-59.1667 272.1482,-59.1667 272.1482,-64.8333 272.1482,-64.8333 272.1482,-67.6667 269.3149,-70.5 266.4815,-70.5"/>
<text text-anchor="middle" x="229.1257" y="-59.3" font-family="Helvetica,sans-Serif" font-size="9.00" fill="#000000">movie&#45;list&#45;page.js</text>
</a>
</g>
</g>
<!-- src/App.js&#45;&gt;src/components/movie&#45;list&#45;page.js -->
<g id="edge6" class="edge">
<title>src/App.js&#45;&gt;src/components/movie&#45;list&#45;page.js</title>
<path fill="none" stroke="#000000" stroke-width="2" stroke-opacity="0.200000" d="M142.6067,-111.3631C148.4477,-101.5559 159.2776,-85.7816 172.8564,-77 175.1009,-75.5485 177.4818,-74.2368 179.9472,-73.0516"/>
<polygon fill="#000000" fill-opacity="0.200000" stroke="#000000" stroke-width="2" stroke-opacity="0.200000" points="181.1542,-74.8177 185.8283,-70.5091 179.4876,-70.9625 181.1542,-74.8177"/>
</g>
<!-- src/components/signupPage.js -->
<g id="node8" class="node">
<title>src/components/signupPage.js</title>
<g id="a_node8"><a xlink:href="src/components/signupPage.js" xlink:title="signupPage.js">
<path fill="#ffffcc" stroke="#000000" d="M259.5006,-41.5C259.5006,-41.5 198.7509,-41.5 198.7509,-41.5 195.9176,-41.5 193.0842,-38.6667 193.0842,-35.8333 193.0842,-35.8333 193.0842,-30.1667 193.0842,-30.1667 193.0842,-27.3333 195.9176,-24.5 198.7509,-24.5 198.7509,-24.5 259.5006,-24.5 259.5006,-24.5 262.3339,-24.5 265.1672,-27.3333 265.1672,-30.1667 265.1672,-30.1667 265.1672,-35.8333 265.1672,-35.8333 265.1672,-38.6667 262.3339,-41.5 259.5006,-41.5"/>
<text text-anchor="middle" x="229.1257" y="-30.3" font-family="Helvetica,sans-Serif" font-size="9.00" fill="#000000">signupPage.js</text>
</a>
</g>
</g>
<!-- src/App.js&#45;&gt;src/components/signupPage.js -->
<g id="edge7" class="edge">
<title>src/App.js&#45;&gt;src/components/signupPage.js</title>
<path fill="none" stroke="#000000" stroke-width="2" stroke-opacity="0.200000" d="M139.5729,-111.4601C143.0704,-96.3218 152.4801,-64.7975 172.8564,-48 177.0959,-44.5052 182.0711,-41.8182 187.2786,-39.7535"/>
<polygon fill="#000000" fill-opacity="0.200000" stroke="#000000" stroke-width="2" stroke-opacity="0.200000" points="188.0295,-41.7157 192.9967,-37.7486 186.6398,-37.7522 188.0295,-41.7157"/>
</g>
<!-- src/components/BlurBackground.js -->
<g id="node9" class="node">
<title>src/components/BlurBackground.js</title>
<g id="a_node9"><a xlink:href="src/components/BlurBackground.js" xlink:title="BlurBackground.js">
<path fill="#ffffcc" stroke="#000000" d="M373.784,-99.5C373.784,-99.5 296.0431,-99.5 296.0431,-99.5 293.2098,-99.5 290.3765,-96.6667 290.3765,-93.8333 290.3765,-93.8333 290.3765,-88.1667 290.3765,-88.1667 290.3765,-85.3333 293.2098,-82.5 296.0431,-82.5 296.0431,-82.5 373.784,-82.5 373.784,-82.5 376.6174,-82.5 379.4507,-85.3333 379.4507,-88.1667 379.4507,-88.1667 379.4507,-93.8333 379.4507,-93.8333 379.4507,-96.6667 376.6174,-99.5 373.784,-99.5"/>
<text text-anchor="middle" x="334.9136" y="-88.3" font-family="Helvetica,sans-Serif" font-size="9.00" fill="#000000">BlurBackground.js</text>
</a>
</g>
</g>
<!-- src/components/movie&#45;detail&#45;page.js&#45;&gt;src/components/BlurBackground.js -->
<g id="edge11" class="edge">
<title>src/components/movie&#45;detail&#45;page.js&#45;&gt;src/components/BlurBackground.js</title>
<path fill="none" stroke="#000000" stroke-width="2" stroke-opacity="0.200000" d="M277.3761,-91C279.5013,-91 281.6366,-91 283.7681,-91"/>
<polygon fill="#000000" fill-opacity="0.200000" stroke="#000000" stroke-width="2" stroke-opacity="0.200000" points="284.1375,-93.1001 290.1375,-91 284.1374,-88.9001 284.1375,-93.1001"/>
</g>
<!-- src/components/MovieContent.js -->
<g id="node12" class="node">
<title>src/components/MovieContent.js</title>
<g id="a_node12"><a xlink:href="src/components/MovieContent.js" xlink:title="MovieContent.js">
<path fill="#ffffcc" stroke="#000000" d="M369.2776,-128.5C369.2776,-128.5 300.5496,-128.5 300.5496,-128.5 297.7162,-128.5 294.8829,-125.6667 294.8829,-122.8333 294.8829,-122.8333 294.8829,-117.1667 294.8829,-117.1667 294.8829,-114.3333 297.7162,-111.5 300.5496,-111.5 300.5496,-111.5 369.2776,-111.5 369.2776,-111.5 372.1109,-111.5 374.9442,-114.3333 374.9442,-117.1667 374.9442,-117.1667 374.9442,-122.8333 374.9442,-122.8333 374.9442,-125.6667 372.1109,-128.5 369.2776,-128.5"/>
<text text-anchor="middle" x="334.9136" y="-117.3" font-family="Helvetica,sans-Serif" font-size="9.00" fill="#000000">MovieContent.js</text>
</a>
</g>
</g>
<!-- src/components/movie&#45;detail&#45;page.js&#45;&gt;src/components/MovieContent.js -->
<g id="edge12" class="edge">
<title>src/components/movie&#45;detail&#45;page.js&#45;&gt;src/components/MovieContent.js</title>
<path fill="none" stroke="#000000" stroke-width="2" stroke-opacity="0.200000" d="M260.2934,-99.5441C272.0257,-102.7603 285.484,-106.4497 297.712,-109.8018"/>
<polygon fill="#000000" fill-opacity="0.200000" stroke="#000000" stroke-width="2" stroke-opacity="0.200000" points="297.2614,-111.8557 303.6031,-111.4168 298.3718,-107.8051 297.2614,-111.8557"/>
</g>
<!-- src/components/Movies.js -->
<g id="node14" class="node">
<title>src/components/Movies.js</title>
<g id="a_node14"><a xlink:href="src/components/Movies.js" xlink:title="Movies.js">
<path fill="#ffffcc" stroke="#000000" d="M356.2469,-70.5C356.2469,-70.5 313.5802,-70.5 313.5802,-70.5 310.7469,-70.5 307.9136,-67.6667 307.9136,-64.8333 307.9136,-64.8333 307.9136,-59.1667 307.9136,-59.1667 307.9136,-56.3333 310.7469,-53.5 313.5802,-53.5 313.5802,-53.5 356.2469,-53.5 356.2469,-53.5 359.0802,-53.5 361.9136,-56.3333 361.9136,-59.1667 361.9136,-59.1667 361.9136,-64.8333 361.9136,-64.8333 361.9136,-67.6667 359.0802,-70.5 356.2469,-70.5"/>
<text text-anchor="middle" x="334.9136" y="-59.3" font-family="Helvetica,sans-Serif" font-size="9.00" fill="#000000">Movies.js</text>
</a>
</g>
</g>
<!-- src/components/movie&#45;list&#45;page.js&#45;&gt;src/components/Movies.js -->
<g id="edge13" class="edge">
<title>src/components/movie&#45;list&#45;page.js&#45;&gt;src/components/Movies.js</title>
<path fill="none" stroke="#000000" stroke-width="2" stroke-opacity="0.200000" d="M272.1537,-62C282.0078,-62 292.3356,-62 301.7027,-62"/>
<polygon fill="#000000" fill-opacity="0.200000" stroke="#000000" stroke-width="2" stroke-opacity="0.200000" points="301.705,-64.1001 307.7049,-62 301.7049,-59.9001 301.705,-64.1001"/>
</g>
<!-- src/components/CarouselSlider.js -->
<g id="node10" class="node">
<title>src/components/CarouselSlider.js</title>
<g id="a_node10"><a xlink:href="src/components/CarouselSlider.js" xlink:title="CarouselSlider.js">
<path fill="#ffffcc" stroke="#000000" d="M481.5788,-99.5C481.5788,-99.5 409.8392,-99.5 409.8392,-99.5 407.0059,-99.5 404.1725,-96.6667 404.1725,-93.8333 404.1725,-93.8333 404.1725,-88.1667 404.1725,-88.1667 404.1725,-85.3333 407.0059,-82.5 409.8392,-82.5 409.8392,-82.5 481.5788,-82.5 481.5788,-82.5 484.4121,-82.5 487.2454,-85.3333 487.2454,-88.1667 487.2454,-88.1667 487.2454,-93.8333 487.2454,-93.8333 487.2454,-96.6667 484.4121,-99.5 481.5788,-99.5"/>
<text text-anchor="middle" x="445.709" y="-88.3" font-family="Helvetica,sans-Serif" font-size="9.00" fill="#000000">CarouselSlider.js</text>
</a>
</g>
</g>
<!-- src/components/LargeCarouselSlider.js -->
<g id="node11" class="node">
<title>src/components/LargeCarouselSlider.js</title>
<g id="a_node11"><a xlink:href="src/components/LargeCarouselSlider.js" xlink:title="LargeCarouselSlider.js">
<path fill="#ffffcc" stroke="#000000" d="M493.097,-128.5C493.097,-128.5 398.321,-128.5 398.321,-128.5 395.4877,-128.5 392.6543,-125.6667 392.6543,-122.8333 392.6543,-122.8333 392.6543,-117.1667 392.6543,-117.1667 392.6543,-114.3333 395.4877,-111.5 398.321,-111.5 398.321,-111.5 493.097,-111.5 493.097,-111.5 495.9303,-111.5 498.7636,-114.3333 498.7636,-117.1667 498.7636,-117.1667 498.7636,-122.8333 498.7636,-122.8333 498.7636,-125.6667 495.9303,-128.5 493.097,-128.5"/>
<text text-anchor="middle" x="445.709" y="-117.3" font-family="Helvetica,sans-Serif" font-size="9.00" fill="#000000">LargeCarouselSlider.js</text>
</a>
</g>
</g>
<!-- src/components/MovieContent.js&#45;&gt;src/components/CarouselSlider.js -->
<g id="edge8" class="edge">
<title>src/components/MovieContent.js&#45;&gt;src/components/CarouselSlider.js</title>
<path fill="none" stroke="#000000" stroke-width="2" stroke-opacity="0.200000" d="M367.5566,-111.4559C379.9559,-108.2104 394.1961,-104.4832 407.0954,-101.1069"/>
<polygon fill="#000000" fill-opacity="0.200000" stroke="#000000" stroke-width="2" stroke-opacity="0.200000" points="407.6437,-103.1342 412.9164,-99.5832 406.5802,-99.071 407.6437,-103.1342"/>
</g>
<!-- src/components/MovieContent.js&#45;&gt;src/components/LargeCarouselSlider.js -->
<g id="edge9" class="edge">
<title>src/components/MovieContent.js&#45;&gt;src/components/LargeCarouselSlider.js</title>
<path fill="none" stroke="#000000" stroke-width="2" stroke-opacity="0.200000" d="M375.2267,-120C378.7941,-120 382.4518,-120 386.1343,-120"/>
<polygon fill="#000000" fill-opacity="0.200000" stroke="#000000" stroke-width="2" stroke-opacity="0.200000" points="386.3434,-122.1001 392.3434,-120 386.3434,-117.9001 386.3434,-122.1001"/>
</g>
<!-- src/components/Review.js -->
<g id="node13" class="node">
<title>src/components/Review.js</title>
<g id="a_node13"><a xlink:href="src/components/Review.js" xlink:title="Review.js">
<path fill="#ffffcc" stroke="#000000" d="M467.0594,-157.5C467.0594,-157.5 424.3586,-157.5 424.3586,-157.5 421.5252,-157.5 418.6919,-154.6667 418.6919,-151.8333 418.6919,-151.8333 418.6919,-146.1667 418.6919,-146.1667 418.6919,-143.3333 421.5252,-140.5 424.3586,-140.5 424.3586,-140.5 467.0594,-140.5 467.0594,-140.5 469.8927,-140.5 472.7261,-143.3333 472.7261,-146.1667 472.7261,-146.1667 472.7261,-151.8333 472.7261,-151.8333 472.7261,-154.6667 469.8927,-157.5 467.0594,-157.5"/>
<text text-anchor="middle" x="445.709" y="-146.3" font-family="Helvetica,sans-Serif" font-size="9.00" fill="#000000">Review.js</text>
</a>
</g>
</g>
<!-- src/components/MovieContent.js&#45;&gt;src/components/Review.js -->
<g id="edge10" class="edge">
<title>src/components/MovieContent.js&#45;&gt;src/components/Review.js</title>
<path fill="none" stroke="#000000" stroke-width="2" stroke-opacity="0.200000" d="M367.5566,-128.5441C381.7432,-132.2574 398.3396,-136.6014 412.5805,-140.3288"/>
<polygon fill="#000000" fill-opacity="0.200000" stroke="#000000" stroke-width="2" stroke-opacity="0.200000" points="412.1893,-142.3971 418.5256,-141.8849 413.2529,-138.334 412.1893,-142.3971"/>
</g>
<!-- src/index.js -->
<g id="node15" class="node">
<title>src/index.js</title>
<g id="a_node15"><a xlink:href="src/index.js" xlink:title="index.js">
<path fill="#ffffcc" stroke="#000000" d="M78.2616,-128.5C78.2616,-128.5 35.5949,-128.5 35.5949,-128.5 32.7616,-128.5 29.9282,-125.6667 29.9282,-122.8333 29.9282,-122.8333 29.9282,-117.1667 29.9282,-117.1667 29.9282,-114.3333 32.7616,-111.5 35.5949,-111.5 35.5949,-111.5 78.2616,-111.5 78.2616,-111.5 81.0949,-111.5 83.9282,-114.3333 83.9282,-117.1667 83.9282,-117.1667 83.9282,-122.8333 83.9282,-122.8333 83.9282,-125.6667 81.0949,-128.5 78.2616,-128.5"/>
<text text-anchor="middle" x="56.9282" y="-117.3" font-family="Helvetica,sans-Serif" font-size="9.00" fill="#000000">index.js</text>
</a>
</g>
</g>
<!-- src/index.js&#45;&gt;src/App.js -->
<g id="edge14" class="edge">
<title>src/index.js&#45;&gt;src/App.js</title>
<path fill="none" stroke="#000000" stroke-width="2" stroke-opacity="0.200000" d="M84.3268,-120C90.8569,-120 97.8955,-120 104.6547,-120"/>
<polygon fill="#000000" fill-opacity="0.200000" stroke="#000000" stroke-width="2" stroke-opacity="0.200000" points="104.7609,-122.1001 110.7608,-120 104.7608,-117.9001 104.7609,-122.1001"/>
</g>
<!-- src/serviceWorker.js -->
<g id="node16" class="node">
<title>src/serviceWorker.js</title>
<g id="a_node16"><a xlink:href="src/serviceWorker.js" xlink:title="serviceWorker.js">
<path fill="#ccffcc" stroke="#000000" d="M92.1181,-98.5C92.1181,-98.5 21.7383,-98.5 21.7383,-98.5 18.905,-98.5 16.0717,-95.6667 16.0717,-92.8333 16.0717,-92.8333 16.0717,-87.1667 16.0717,-87.1667 16.0717,-84.3333 18.905,-81.5 21.7383,-81.5 21.7383,-81.5 92.1181,-81.5 92.1181,-81.5 94.9515,-81.5 97.7848,-84.3333 97.7848,-87.1667 97.7848,-87.1667 97.7848,-92.8333 97.7848,-92.8333 97.7848,-95.6667 94.9515,-98.5 92.1181,-98.5"/>
<text text-anchor="middle" x="56.9282" y="-87.3" font-family="Helvetica,sans-Serif" font-size="9.00" fill="#000000">serviceWorker.js</text>
</a>
</g>
</g>
<!-- src/setupProxy.js -->
<g id="node17" class="node">
<title>src/setupProxy.js</title>
<g id="a_node17"><a xlink:href="src/setupProxy.js" xlink:title="setupProxy.js">
<path fill="#ccffcc" stroke="#000000" d="M86.1209,-67.5C86.1209,-67.5 27.7356,-67.5 27.7356,-67.5 24.9022,-67.5 22.0689,-64.6667 22.0689,-61.8333 22.0689,-61.8333 22.0689,-56.1667 22.0689,-56.1667 22.0689,-53.3333 24.9022,-50.5 27.7356,-50.5 27.7356,-50.5 86.1209,-50.5 86.1209,-50.5 88.9542,-50.5 91.7876,-53.3333 91.7876,-56.1667 91.7876,-56.1667 91.7876,-61.8333 91.7876,-61.8333 91.7876,-64.6667 88.9542,-67.5 86.1209,-67.5"/>
<text text-anchor="middle" x="56.9282" y="-56.3" font-family="Helvetica,sans-Serif" font-size="9.00" fill="#000000">setupProxy.js</text>
</a>
</g>
</g>
<!-- src/setupTests.js -->
<g id="node18" class="node">
<title>src/setupTests.js</title>
<g id="a_node18"><a xlink:href="src/setupTests.js" xlink:title="setupTests.js">
<path fill="#ccffcc" stroke="#000000" d="M85.284,-34.5C85.284,-34.5 28.5724,-34.5 28.5724,-34.5 25.7391,-34.5 22.9058,-31.6667 22.9058,-28.8333 22.9058,-28.8333 22.9058,-23.1667 22.9058,-23.1667 22.9058,-20.3333 25.7391,-17.5 28.5724,-17.5 28.5724,-17.5 85.284,-17.5 85.284,-17.5 88.1174,-17.5 90.9507,-20.3333 90.9507,-23.1667 90.9507,-23.1667 90.9507,-28.8333 90.9507,-28.8333 90.9507,-31.6667 88.1174,-34.5 85.284,-34.5"/>
<text text-anchor="middle" x="56.9282" y="-23.3" font-family="Helvetica,sans-Serif" font-size="9.00" fill="#000000">setupTests.js</text>
</a>
</g>
</g>
</g>
</svg>
