<?xml version="1.0" encoding="UTF-8" standalone="no"?>
<svg
   xmlns:dc="http://purl.org/dc/elements/1.1/"
   xmlns:cc="http://creativecommons.org/ns#"
   xmlns:rdf="http://www.w3.org/1999/02/22-rdf-syntax-ns#"
   xmlns:svg="http://www.w3.org/2000/svg"
   xmlns="http://www.w3.org/2000/svg"
   id="SVGRoot"
   version="1.1"
   viewBox="0 0 1010 446"
   height="446px"
   width="1010px">
  <defs
     id="defs894" />
  <metadata
     id="metadata897">
    <rdf:RDF>
      <cc:Work
         rdf:about="">
        <dc:format>image/svg+xml</dc:format>
        <dc:type
           rdf:resource="http://purl.org/dc/dcmitype/StillImage" />
        <dc:title></dc:title>
      </cc:Work>
    </rdf:RDF>
  </metadata>
  <g
     id="layer1">
    <g
       id="flowRoot1403"
       style="font-style:normal;font-variant:normal;font-weight:normal;font-stretch:normal;font-size:40px;line-height:1.25;font-family:'Script MT Bold';-inkscape-font-specification:'Script MT Bold, ';letter-spacing:0px;word-spacing:0px;fill:#d4af37;fill-opacity:1;stroke:none"
       transform="matrix(1.077639,0,0,1.1456098,8.908838,-327.41866)"
       aria-label="Cinema">
      <path
         id="path881"
         style="font-style:normal;font-variant:normal;font-weight:normal;font-stretch:normal;font-size:266.66665649px;font-family:'Script MT Bold';-inkscape-font-specification:'Script MT Bold, ';fill:#d4af37;fill-opacity:1"
         d="m 184.55273,443.39201 q -30.85938,32.03125 -74.47917,32.03125 -31.249994,0 -51.302077,-19.53125 -19.921874,-19.66145 -19.921874,-50.39062 0,-30.59896 14.453125,-58.20312 14.453124,-27.60417 37.760415,-44.14063 23.437501,-16.53645 45.963541,-16.53645 18.88021,0 30.72916,11.32812 11.97917,11.32813 11.97917,29.42708 0,23.56771 -14.45312,40.88542 -14.32292,17.1875 -33.59375,17.1875 -10.15625,0 -16.66667,-5.20834 -6.51042,-5.20833 -6.51042,-13.41145 0,-7.03125 5.59896,-13.02084 4.16667,7.6823 11.45834,7.6823 10.41666,0 19.27083,-13.02084 8.98437,-13.02083 8.98437,-28.51562 0,-10.80729 -5.07812,-17.1875 -4.94792,-6.38021 -13.28125,-6.38021 -12.10938,0 -25.91146,15.10417 -13.671873,15.10416 -22.916664,38.80208 -9.114583,23.69791 -9.114583,45.05208 0,27.21354 15.364582,44.66146 15.494795,17.44791 39.322915,17.44791 15.10417,0 27.21354,-7.03125 12.10938,-7.03125 25.13021,-22.0052 z" />
      <path
         id="path883"
         style="font-style:normal;font-variant:normal;font-weight:normal;font-stretch:normal;font-size:266.66665649px;font-family:'Script MT Bold';-inkscape-font-specification:'Script MT Bold, ';fill:#d4af37;fill-opacity:1"
         d="m 245.75065,310.83994 q 0,31.24999 -23.04688,31.24999 -11.19791,0 -19.14062,-6.77083 7.55208,-11.45833 11.71875,-25.78125 10.28646,6.38021 16.53646,6.38021 7.03125,0 13.93229,-5.07812 z m 2.60417,132.55207 q -30.46875,32.03125 -45.57292,32.03125 -8.33333,0 -14.0625,-8.46354 -5.72917,-8.59375 -5.72917,-21.48437 0,-27.73438 18.75,-76.82292 l 33.07292,-6.90104 h 1.5625 l -13.02083,40.75521 q -8.07292,25.26041 -8.07292,36.06771 0,4.29687 1.82292,7.03125 1.95312,2.60416 4.8177,2.60416 5.07813,0 10.15625,-3.64583 5.20834,-3.77604 16.27605,-16.14583 z" />
      <path
         id="path885"
         style="font-style:normal;font-variant:normal;font-weight:normal;font-stretch:normal;font-size:266.66665649px;font-family:'Script MT Bold';-inkscape-font-specification:'Script MT Bold, ';fill:#d4af37;fill-opacity:1"
         d="m 376.2194,443.39201 q -30.07813,31.77084 -51.5625,31.77084 -8.72396,0 -14.0625,-6.1198 -5.33854,-6.11979 -5.33854,-16.40624 0,-13.9323 11.45833,-42.57813 6.11979,-15.36458 6.11979,-19.53125 0,-4.16666 -3.25521,-4.16666 -1.82291,0 -4.8177,1.82291 -2.73438,1.82292 -6.38021,5.07813 -3.25521,2.99479 -7.29167,7.29166 -3.51562,3.64584 -7.55208,8.33334 l -7.29167,8.46354 q -4.81771,5.85937 -5.98958,12.36979 -1.95313,11.06771 -2.60417,20.3125 -0.39062,6.90104 -0.39062,18.61979 l -28.77604,6.77083 q -1.4323,-17.57812 -1.4323,-26.17187 0,-20.96354 4.81771,-39.71354 4.94792,-18.75 15.75521,-42.1875 l 31.77083,-6.11979 q -10.02604,26.95312 -13.15104,42.44791 21.35417,-23.82812 33.85417,-32.9427 12.6302,-9.24479 22.39583,-9.24479 6.64062,0 11.06771,5.07812 4.42708,4.94792 4.42708,12.5 0,12.5 -11.19792,41.14583 -7.68229,19.66146 -7.68229,25.52083 0,7.8125 6.38021,7.8125 9.50521,0 30.72917,-25.1302 z" />
      <path
         id="path887"
         style="font-style:normal;font-variant:normal;font-weight:normal;font-stretch:normal;font-size:266.66665649px;font-family:'Script MT Bold';-inkscape-font-specification:'Script MT Bold, ';fill:#d4af37;fill-opacity:1"
         d="m 473.3548,443.39201 q -16.53645,16.27604 -29.6875,24.08854 -13.15104,7.6823 -29.03645,7.6823 -17.70834,0 -28.64583,-11.32813 -10.8073,-11.32812 -10.8073,-29.81771 0,-27.60416 19.14063,-49.86979 19.14062,-22.39583 42.44791,-22.39583 12.10938,0 19.40104,6.25 7.29167,6.25 7.29167,16.40625 0,26.95313 -57.29166,43.75 5.20833,25.39062 27.21354,25.39062 8.59375,0 16.40625,-4.55729 7.8125,-4.6875 23.5677,-20.57291 z m -68.22916,-24.08854 q 33.33333,-9.375 33.33333,-34.63541 0,-12.5 -9.11458,-12.5 -8.59375,0 -16.40625,13.15104 -7.8125,13.02083 -7.8125,33.98437 z" />
      <path
         id="path889"
         style="font-style:normal;font-variant:normal;font-weight:normal;font-stretch:normal;font-size:266.66665649px;font-family:'Script MT Bold';-inkscape-font-specification:'Script MT Bold, ';fill:#d4af37;fill-opacity:1"
         d="m 665.15169,443.39201 q -16.27605,15.88542 -27.86459,23.82813 -11.58854,7.94271 -22.52604,7.94271 -8.59375,0 -13.67187,-5.85938 -4.94792,-5.98958 -4.94792,-16.01562 0,-14.0625 7.03125,-35.67709 7.03125,-21.61458 7.03125,-26.30208 0,-4.16666 -4.29687,-4.16666 -1.30209,0 -3.125,0.91145 -1.95313,0.91146 -4.42709,2.60417 -2.47396,1.82292 -5.33854,4.42708 -2.86458,2.60417 -5.98958,5.98959 -3.38542,3.38541 -6.77083,7.42187 -5.72917,6.77083 -6.77084,11.32813 l -4.29687,18.61979 -7.8125,30.72916 -33.07292,5.98959 12.63021,-53.64584 q 1.43229,-5.85937 3.38542,-17.18749 1.95312,-11.32813 1.95312,-13.54167 0,-4.42708 -2.99479,-4.42708 -0.91146,0 -2.60417,0.91145 -1.95312,0.91146 -4.42708,2.73438 -2.86458,2.08333 -6.11979,4.94792 -3.51563,3.125 -7.55208,7.16145 -4.29688,4.29688 -8.85417,9.50521 -6.25,7.03125 -7.8125,16.40625 -2.08333,11.19792 -2.86458,20.05208 -0.91146,8.85417 -1.04167,19.79167 l -28.90625,6.90104 q -1.04167,-14.97396 -1.04167,-25 0,-23.82812 4.94792,-41.40625 4.94792,-17.70833 16.14583,-41.27604 l 31.51042,-6.11979 q -8.46354,21.22396 -13.15104,41.01563 35.02604,-40.75521 53.64583,-40.75521 6.77083,0 10.9375,5.59896 4.29687,5.46875 4.29687,14.45312 0,4.16667 -1.30208,15.36458 22.00521,-22.0052 31.51042,-28.64583 9.63541,-6.77083 17.70833,-6.77083 7.16146,0 11.71875,5.72917 4.55729,5.72916 4.55729,14.58333 0,13.93229 -7.68229,35.80729 -7.68229,21.875 -7.68229,28.90625 0,7.29166 5.33854,7.29166 3.38541,0 9.375,-4.42708 6.11979,-4.55729 21.22396,-20.70312 z" />
      <path
         id="path891"
         style="font-style:normal;font-variant:normal;font-weight:normal;font-stretch:normal;font-size:266.66665649px;font-family:'Script MT Bold';-inkscape-font-specification:'Script MT Bold, ';fill:#d4af37;fill-opacity:1"
         d="m 804.08394,443.39201 q -20.83333,19.79167 -29.81771,25.78125 -8.98437,5.98959 -17.1875,5.98959 -20.57291,0 -19.40104,-36.32813 -13.02083,18.61979 -24.08854,27.47396 -10.9375,8.85417 -22.65625,8.85417 -11.45833,0 -19.53125,-10.67709 -7.94271,-10.80729 -7.94271,-26.43229 0,-19.53125 10.67709,-37.23958 10.80729,-17.70833 27.60416,-28.64583 16.79688,-10.9375 29.6875,-10.9375 16.27604,0 22.78646,14.97396 l 26.5625,-14.71354 h 7.29166 l -11.45833,38.15104 q -8.85417,28.77604 -8.85417,39.45312 0,11.19792 7.94271,11.19792 5.07813,0 11.19792,-5.33855 6.11979,-5.46875 17.1875,-16.53645 z m -95.3125,7.16146 q 13.02083,0 24.47917,-22.13541 11.58854,-22.26563 11.58854,-41.01563 0,-7.29166 -3.25521,-11.32812 -3.25521,-4.16667 -8.72396,-4.16667 -13.02083,0 -24.73958,22.13542 -11.58854,22.13541 -11.58854,40.7552 0,7.03125 3.38542,11.45834 3.51562,4.29687 8.85416,4.29687 z" />
    </g>
    <g
       id="flowRoot1411"
       style="font-style:normal;font-weight:normal;font-size:266.66665649px;line-height:1.25;font-family:sans-serif;letter-spacing:0px;word-spacing:0px;fill:#d4af37;fill-opacity:1;stroke:none"
       transform="matrix(1.077639,0,0,1.1456098,-58.828472,-484.53087)"
       aria-label="Paradise">
      <path
         id="path864"
         style="font-style:normal;font-variant:normal;font-weight:normal;font-stretch:normal;font-size:266.66665649px;font-family:'Script MT Bold';-inkscape-font-specification:'Script MT Bold, ';fill:#d4af37;fill-opacity:1"
         d="m 172.26106,623.19563 q 27.47396,0 43.75,13.41146 16.27604,13.28125 16.27604,35.54688 0,20.57291 -12.10937,33.07291 -11.97917,12.36979 -20.70313,12.36979 -3.2552,0 -7.42187,-2.86458 -4.03646,-2.86458 -4.03646,-5.20833 0,-1.30209 6.11979,-9.375 14.32292,-17.70834 14.32292,-35.15625 0,-14.71354 -9.89583,-23.30729 -9.89584,-8.72396 -26.82292,-8.72396 -25.52083,0 -46.22396,15.625 -20.70312,15.49479 -20.70312,33.98437 0,12.23958 11.19792,16.79688 4.42708,1.95312 4.42708,5.33854 0,3.51562 -9.76563,8.20312 -9.76562,4.6875 -13.671871,4.6875 -5.859374,0 -11.067708,-7.68229 -5.208333,-7.8125 -5.208333,-16.92708 0,-24.47917 26.302082,-47.13542 26.30208,-22.65625 65.23437,-22.65625 z m 24.47917,33.85417 q -8.59375,7.68229 -12.5,17.96875 -3.90625,10.15625 -7.94271,42.57812 -4.03646,32.29167 -13.15104,50.91146 -8.98437,18.61979 -28.51562,31.11979 -19.40104,12.36979 -42.708336,12.36979 -16.536457,0 -26.953123,-8.20312 -10.286458,-8.20313 -10.286458,-20.96355 0,-4.8177 2.994791,-7.81249 2.994792,-3.125 12.239583,-8.33334 9.244791,-5.20833 12.5,-5.20833 2.213541,0 3.776041,1.5625 1.5625,1.43229 1.5625,3.51562 0,1.30209 -1.302083,9.63542 -1.171875,8.33333 -1.171875,9.89583 0,15.49479 13.020833,15.49479 14.713537,0 24.739577,-17.1875 10.02605,-17.3177 14.45313,-53.90624 4.55729,-36.71875 13.67187,-51.82292 9.11459,-15.10416 21.22396,-21.35416 12.23958,-6.38021 16.92708,-6.38021 3.25521,0 7.42188,6.11979 z" />
      <path
         id="path866"
         style="font-style:normal;font-variant:normal;font-weight:normal;font-stretch:normal;font-size:266.66665649px;font-family:'Script MT Bold';-inkscape-font-specification:'Script MT Bold, ';fill:#d4af37;fill-opacity:1"
         d="m 354.16209,780.22688 q -20.83333,19.79166 -29.8177,25.78125 -8.98438,5.98958 -17.1875,5.98958 -20.57292,0 -19.40104,-36.32812 -13.02084,18.61979 -24.08854,27.47395 -10.9375,8.85417 -22.65625,8.85417 -11.45834,0 -19.53125,-10.67708 -7.94271,-10.80729 -7.94271,-26.43229 0,-19.53125 10.67708,-37.23959 10.80729,-17.70833 27.60417,-28.64583 16.79687,-10.9375 29.6875,-10.9375 16.27604,0 22.78645,14.97396 l 26.5625,-14.71354 h 7.29167 l -11.45833,38.15104 q -8.85417,28.77604 -8.85417,39.45312 0,11.19792 7.94271,11.19792 5.07812,0 11.19791,-5.33854 6.1198,-5.46875 17.1875,-16.53646 z m -95.31249,7.16146 q 13.02083,0 24.47916,-22.13542 11.58854,-22.26562 11.58854,-41.01562 0,-7.29167 -3.2552,-11.32813 -3.25521,-4.16666 -8.72396,-4.16666 -13.02083,0 -24.73958,22.13541 -11.58855,22.13542 -11.58855,40.75521 0,7.03125 3.38542,11.45833 3.51563,4.29688 8.85417,4.29688 z" />
      <path
         id="path868"
         style="font-style:normal;font-variant:normal;font-weight:normal;font-stretch:normal;font-size:266.66665649px;font-family:'Script MT Bold';-inkscape-font-specification:'Script MT Bold, ';fill:#d4af37;fill-opacity:1"
         d="m 451.68815,780.22688 q -32.68229,32.03125 -50.39063,32.03125 -7.9427,0 -13.41145,-6.64063 -5.46875,-6.77083 -5.46875,-16.66666 0,-18.35938 19.66145,-49.21875 -9.63541,4.94791 -21.09375,6.90104 -8.46354,15.625 -26.56249,33.59375 h -2.9948 v -11.71875 q 10.15625,-10.54688 18.35938,-22.65625 -11.19792,-4.94792 -11.19792,-14.71354 0,-10.02604 6.77084,-21.35417 6.90104,-11.45833 18.8802,-11.45833 10.15625,0 10.15625,10.41667 0,8.20312 -5.85937,23.4375 21.61458,-2.34375 37.76041,-33.07292 l 11.84896,-0.52083 -12.10937,33.33333 q -7.55209,21.09375 -9.76563,28.77604 -2.21354,7.55208 -2.21354,13.41146 0,5.46875 2.47396,8.72395 2.60417,3.25521 6.90104,3.25521 4.6875,0 8.98437,-3.125 4.29688,-3.2552 19.27084,-17.70833 z" />
      <path
         id="path870"
         style="font-style:normal;font-variant:normal;font-weight:normal;font-stretch:normal;font-size:266.66665649px;font-family:'Script MT Bold';-inkscape-font-specification:'Script MT Bold, ';fill:#d4af37;fill-opacity:1"
         d="m 590.75063,780.22688 q -20.83334,19.79166 -29.81771,25.78125 -8.98438,5.98958 -17.1875,5.98958 -20.57292,0 -19.40104,-36.32812 -13.02084,18.61979 -24.08854,27.47395 -10.9375,8.85417 -22.65625,8.85417 -11.45833,0 -19.53125,-10.67708 -7.94271,-10.80729 -7.94271,-26.43229 0,-19.53125 10.67708,-37.23959 10.80729,-17.70833 27.60417,-28.64583 16.79687,-10.9375 29.6875,-10.9375 16.27604,0 22.78646,14.97396 l 26.56249,-14.71354 h 7.29167 l -11.45833,38.15104 q -8.85417,28.77604 -8.85417,39.45312 0,11.19792 7.94271,11.19792 5.07812,0 11.19792,-5.33854 6.11979,-5.46875 17.1875,-16.53646 z m -95.3125,7.16146 q 13.02083,0 24.47916,-22.13542 11.58855,-22.26562 11.58855,-41.01562 0,-7.29167 -3.25521,-11.32813 -3.25521,-4.16666 -8.72396,-4.16666 -13.02083,0 -24.73958,22.13541 -11.58854,22.13542 -11.58854,40.75521 0,7.03125 3.38541,11.45833 3.51563,4.29688 8.85417,4.29688 z" />
      <path
         id="path872"
         style="font-style:normal;font-variant:normal;font-weight:normal;font-stretch:normal;font-size:266.66665649px;font-family:'Script MT Bold';-inkscape-font-specification:'Script MT Bold, ';fill:#d4af37;fill-opacity:1"
         d="m 729.81313,780.22688 q -18.75,18.61979 -28.64584,25.26041 -9.76562,6.51042 -17.3177,6.51042 -9.2448,0 -14.71355,-8.98437 -5.33854,-8.98438 -5.46875,-26.30209 -10.67708,17.31771 -23.30729,26.30209 -12.5,8.98437 -22.65625,8.98437 -11.0677,0 -19.53124,-10.41667 -8.46355,-10.54687 -8.46355,-24.60937 0,-29.03646 21.09375,-53.77604 21.22396,-24.86979 45.57292,-24.86979 6.77083,0 10.54687,1.95312 3.90625,1.95313 8.46354,6.64063 l 18.61979,-77.86458 q 22.78646,-5.33854 30.72917,-5.33854 2.60417,0 2.60417,2.08333 0,1.43229 -6.51042,26.95312 -26.04167,102.08333 -26.04167,123.17708 0,4.94792 2.08334,7.94271 2.08333,2.99479 5.46875,2.99479 8.33333,0 27.47396,-21.61458 z m -94.14063,6.90104 q 12.76042,0 23.82813,-21.61458 11.06771,-21.61459 11.06771,-40.49479 0,-7.68229 -3.51563,-12.23959 -3.38542,-4.55729 -8.98437,-4.55729 -12.10938,0 -23.4375,22.65625 -11.32813,22.52604 -11.32813,40.75521 0,7.16146 3.25521,11.32812 3.38542,4.16667 9.11458,4.16667 z" />
      <path
         id="path874"
         style="font-style:normal;font-variant:normal;font-weight:normal;font-stretch:normal;font-size:266.66665649px;font-family:'Script MT Bold';-inkscape-font-specification:'Script MT Bold, ';fill:#d4af37;fill-opacity:1"
         d="m 791.27146,647.6748 q 0,31.25 -23.04687,31.25 -11.19792,0 -19.14063,-6.77083 7.55209,-11.45834 11.71875,-25.78125 10.28646,6.3802 16.53646,6.3802 7.03125,0 13.93229,-5.07812 z m 2.60417,132.55208 q -30.46875,32.03125 -45.57292,32.03125 -8.33333,0 -14.0625,-8.46354 -5.72916,-8.59375 -5.72916,-21.48438 0,-27.73437 18.75,-76.82291 l 33.07291,-6.90104 h 1.5625 l -13.02083,40.7552 q -8.07292,25.26042 -8.07292,36.06771 0,4.29688 1.82292,7.03125 1.95312,2.60417 4.81771,2.60417 5.07812,0 10.15625,-3.64584 5.20833,-3.77604 16.27604,-16.14583 z" />
      <path
         id="path876"
         style="font-style:normal;font-variant:normal;font-weight:normal;font-stretch:normal;font-size:266.66665649px;font-family:'Script MT Bold';-inkscape-font-specification:'Script MT Bold, ';fill:#d4af37;fill-opacity:1"
         d="m 833.9798,703.9248 q 8.98437,-2.34375 18.09895,-3.77604 9.11459,-1.5625 10.9375,-1.5625 1.30209,0 1.30209,1.04166 0,1.95313 -1.04167,4.03646 -2.08333,5.98958 -2.08333,11.45833 0,6.77084 7.8125,18.48959 7.8125,11.71875 7.8125,21.74479 0,19.92187 -19.14063,38.41145 -19.01041,18.48959 -39.45312,18.48959 -8.85417,0 -16.14583,-4.6875 -7.29167,-4.6875 -7.29167,-10.02604 0,-3.125 7.16146,-11.84896 7.29166,-8.72396 10.41666,-8.72396 4.16667,0 7.42188,10.67708 3.25521,10.67709 11.19791,10.67709 7.94271,0 14.84375,-7.29167 7.03125,-7.42188 7.03125,-15.88542 0,-8.20312 -8.85416,-21.875 -8.85417,-13.67187 -11.71875,-22.91666 -15.10417,24.34896 -38.28125,49.86979 h -2.99479 v -11.71875 q 31.90104,-33.98437 42.96875,-64.58333 z" />
      <path
         id="path878"
         style="font-style:normal;font-variant:normal;font-weight:normal;font-stretch:normal;font-size:266.66665649px;font-family:'Script MT Bold';-inkscape-font-specification:'Script MT Bold, ';fill:#d4af37;fill-opacity:1"
         d="m 991.46677,780.22688 q -16.53645,16.27604 -29.6875,24.08854 -13.15104,7.68229 -29.03645,7.68229 -17.70834,0 -28.64584,-11.32812 -10.80729,-11.32813 -10.80729,-29.81771 0,-27.60417 19.14063,-49.86979 19.14062,-22.39583 42.44791,-22.39583 12.10938,0 19.40104,6.25 7.29167,6.25 7.29167,16.40625 0,26.95312 -57.29166,43.74999 5.20833,25.39063 27.21354,25.39063 8.59375,0 16.40625,-4.55729 7.81249,-4.6875 23.5677,-20.57292 z m -68.22916,-24.08854 q 33.33333,-9.375 33.33333,-34.63542 0,-12.5 -9.11458,-12.5 -8.59375,0 -16.40625,13.15104 -7.8125,13.02084 -7.8125,33.98438 z" />
    </g>
  </g>
</svg>
